<?xml version="1.0" encoding="UTF-8"?>
<svg version="1.1" xmlns="http://www.w3.org/2000/svg" width="1024" height="1024">
<path d="M0 0 C22.33357593 -0.04699714 44.66714355 -0.08212323 67.00075912 -0.10362434 C77.37373267 -0.11387892 87.74667525 -0.12782599 98.11962891 -0.15087891 C107.17467118 -0.17099307 116.229691 -0.18375854 125.28475499 -0.18817699 C130.06662229 -0.19075431 134.84842545 -0.19668602 139.63027191 -0.21146011 C197.18820347 -0.38205664 257.01884648 2.69158644 300.984375 44.859375 C328.49906492 72.58930369 338.13394505 110.80555975 338.03125 148.84765625 C337.35496327 184.31044149 327.81399157 220.39276279 303.06640625 246.7734375 C301.36470738 248.60702608 299.8417169 250.46401519 298.3125 252.4375 C275.69188561 278.9216904 236.7501097 291.27866072 203.5 295.6875 C202.63101074 295.80697998 201.76202148 295.92645996 200.86669922 296.04956055 C177.9366444 298.83758711 154.55052213 298.16082382 131.49072266 298.13037109 C127.07179878 298.12458459 122.65293447 298.12802625 118.2340126 298.13394356 C114.79564969 298.1375523 111.35730102 298.13641067 107.91893768 298.13381577 C106.28749331 298.13315198 104.65604762 298.13395561 103.0246048 298.13629532 C100.7627871 298.13883677 98.50106815 298.13496427 96.23925781 298.12939453 C94.95786926 298.12859894 93.67648071 298.12780334 92.35626221 298.12698364 C89.42208371 298.01596947 86.85693231 297.61382043 84 297 C84.06063495 322.94815452 84.13820567 348.89621117 84.23571491 374.84425449 C84.28060315 386.89347519 84.32003383 398.9426668 84.34643555 410.99194336 C84.36947216 421.49903382 84.4029332 432.00603167 84.44870156 442.51304859 C84.47255751 448.07193573 84.49133617 453.63073157 84.49761391 459.18966866 C84.50369939 464.43211734 84.52382324 469.67433266 84.55427551 474.91669464 C84.56300055 476.83093324 84.56678994 478.74520241 84.56500816 480.65946007 C84.55375009 498.35070518 85.90907428 516.33135631 97 531 C97.556875 531.845625 98.11375 532.69125 98.6875 533.5625 C101.96934653 537.02174364 105.75290933 538.90879292 110 541 C110.64839844 541.32355469 111.29679687 541.64710938 111.96484375 541.98046875 C115.42794926 543.59456388 118.18115763 544.34716749 122 544 C122.66 545.32 123.32 546.64 124 548 C121.03 548 118.06 548 115 548 C115 548.66 115 549.32 115 550 C114.01 549.67 113.02 549.34 112 549 C107.70812441 548.12160998 103.76745729 547.92712744 99.39453125 548.0859375 C98.16412109 548.12976563 96.93371094 548.17359375 95.66601562 548.21875 C94.39435547 548.2703125 93.12269531 548.321875 91.8125 548.375 C90.52923828 548.41882813 89.24597656 548.46265625 87.92382812 548.5078125 C81.35723294 548.62643219 81.35723294 548.62643219 75 550 C74.67 549.67 74.34 549.34 74 549 C72.42526 548.90146997 70.84612937 548.87201319 69.26831055 548.87060547 C68.26023849 548.86745331 67.25216644 548.86430115 66.21354675 548.86105347 C64.56676689 548.86408981 64.56676689 548.86408981 62.88671875 548.8671875 C61.7656221 548.86623077 60.64452545 548.86527405 59.48945618 548.86428833 C57.11121566 548.86360615 54.7329733 548.86546303 52.35473633 548.86962891 C48.71366171 548.87496168 45.0727113 548.86969289 41.43164062 548.86328125 C39.12499973 548.86394232 36.81835891 548.86522408 34.51171875 548.8671875 C33.4199382 548.86516327 32.32815765 548.86313904 31.20329285 548.86105347 C29.67700005 548.86578171 29.67700005 548.86578171 28.11987305 548.87060547 C26.77870674 548.87179886 26.77870674 548.87179886 25.41044617 548.87301636 C23.0024892 548.92183423 23.0024892 548.92183423 20.74250793 549.57058716 C19.87996651 549.78314651 19.87996651 549.78314651 19 550 C18.67 549.67 18.34 549.34 18 549 C16.39836084 548.90080923 14.79220082 548.87030102 13.1875 548.875 C11.87845703 548.87113281 11.87845703 548.87113281 10.54296875 548.8671875 C8.05079684 548.900305 8.05079684 548.900305 5.94140625 549.59765625 C3.42693897 550.11876315 2.09855305 549.54106377 -0.25 548.5625 C-1.30960937 548.13130859 -1.30960937 548.13130859 -2.390625 547.69140625 C-3.18726563 547.34916016 -3.18726563 547.34916016 -4 547 C-4 546.67 -4 546.34 -4 546 C-3.31035156 545.82984375 -2.62070312 545.6596875 -1.91015625 545.484375 C10.08324703 542.39142601 20.57907056 538.4788212 27.75 527.875 C32.96149311 518.99528053 35.15007068 510.545011 36.09127808 500.37666321 C36.1769966 499.45534428 36.26271513 498.53402535 36.35103118 497.58478767 C37.19349354 487.83382708 37.26744498 478.1288653 37.22705078 468.34838867 C37.22648462 466.38472499 37.22680721 464.4210609 37.22793579 462.45739746 C37.22850231 457.20050576 37.21686353 451.94370805 37.20278788 446.68683791 C37.19016171 441.1656047 37.18910076 435.64436859 37.18673706 430.12312317 C37.18055683 419.7008829 37.16419354 409.27868532 37.14403808 398.85646373 C37.11735754 384.74958038 37.10667846 370.64268509 37.09503365 356.53578281 C37.07630988 334.35715666 37.03644137 312.17862052 37 290 C6.31 290 -24.38 290 -56 290 C-65.27501964 309.70941673 -74.49806155 329.39508778 -83.4765625 349.234375 C-86.65613073 356.2567131 -89.88216932 363.25663901 -93.125 370.25 C-102.21694645 389.8847678 -110.97055507 409.67192396 -119.75292969 429.4465332 C-123.79704875 438.54984252 -127.84330568 447.65180865 -131.96630859 456.71972656 C-132.65815447 458.24590523 -133.3459532 459.77392471 -134.02978516 461.30371094 C-148.59319407 493.85721321 -148.59319407 493.85721321 -164.1875 500.625 C-171.87336958 503.15104125 -177.67448262 501.82148902 -185 499 C-185.8146875 498.76539063 -186.629375 498.53078125 -187.46875 498.2890625 C-190.93860938 496.52200448 -192.7312345 493.88825217 -194.875 490.75 C-195.30482178 490.13318359 -195.73464355 489.51636719 -196.17749023 488.88085938 C-201.63003463 480.86199356 -206.39834942 472.63825131 -208 463 C-208.66 462.67 -209.32 462.34 -210 462 C-210.69728663 459.46265145 -211.05273397 456.91547062 -211.46240234 454.31665039 C-211.7947211 452.26644589 -212.14440612 450.2188696 -212.52197266 448.17651367 C-214.17079686 438.78257522 -214.3978502 429.5695137 -214.375 420.0625 C-214.37478851 419.24907135 -214.37457703 418.4356427 -214.37435913 417.5975647 C-214.34014257 404.38235039 -213.39359307 391.82705679 -210 379 C-209.72712158 377.92298828 -209.72712158 377.92298828 -209.44873047 376.82421875 C-205.43331538 361.35105533 -198.49082883 346.85251776 -189 334 C-188.59410645 333.44747559 -188.18821289 332.89495117 -187.77001953 332.32568359 C-178.05406877 319.20896723 -167.41763613 308.56876827 -154.0546875 299.1796875 C-151.05852024 297.16843784 -151.05852024 297.16843784 -149 295 C-124.76362641 280.39513326 -97.87580555 272.70810015 -70 269 C-69.72397949 268.12956055 -69.44795898 267.25912109 -69.16357422 266.36230469 C-68.06716796 263.19409087 -66.80543394 260.23664865 -65.3828125 257.203125 C-64.86485107 256.09380615 -64.34688965 254.9844873 -63.81323242 253.84155273 C-63.25611572 252.65634033 -62.69899902 251.47112793 -62.125 250.25 C-61.53647009 248.99115146 -60.94834211 247.73211494 -60.3605957 246.47290039 C-59.15538979 243.89108888 -57.94897179 241.30984963 -56.74169922 238.72900391 C-46.68687819 217.21865935 -36.82921509 195.61425878 -27 174 C-26.67183289 173.2783667 -26.34366577 172.5567334 -26.0055542 171.81323242 C-24.11995092 167.66427523 -22.2396352 163.51298459 -20.3666687 159.35830688 C-19.79249182 158.08575266 -19.21708783 156.81375134 -18.64041138 155.54232788 C-17.85037469 153.79939951 -17.06566312 152.05406025 -16.28125 150.30859375 C-15.83845703 149.32689209 -15.39566406 148.34519043 -14.93945312 147.33374023 C-13.87552297 145.11006963 -13.87552297 145.11006963 -14 143 C-13.34 143 -12.68 143 -12 143 C-11.7436377 142.17193848 -11.48727539 141.34387695 -11.22314453 140.49072266 C-9.85232575 136.57855361 -8.19093952 132.89646348 -6.4296875 129.1484375 C-5.6978887 127.57545246 -4.96611916 126.00245381 -4.234375 124.42944336 C-3.84958984 123.60540009 -3.46480469 122.78135681 -3.06835938 121.93234253 C3.74841986 107.32413664 10.44704207 92.6658966 17 77.9375 C17.51364105 76.78722321 17.51364105 76.78722321 18.03765869 75.6137085 C19.00746231 73.4404878 19.97322764 71.26552343 20.9375 69.08984375 C21.22003632 68.45712051 21.50257263 67.82439728 21.79367065 67.17250061 C23.03994706 64.34620138 24.13633869 61.56779263 25.06640625 58.61938477 C26 56 26 56 28 55 C28.72045764 53.0187415 29.38001259 51.01495907 30 49 C30.391875 48.2575 30.78375 47.515 31.1875 46.75 C33.5189784 38.85884234 30.34456242 30.18035745 27 23 C25.51621659 20.540629 23.95675561 18.19867102 22.26953125 15.875 C21 14 21 14 20 11 C16.58564772 8.88958358 12.74356485 7.93095897 8.92578125 6.78125 C7 6 7 6 6 4 C2.97065509 3.34227572 2.97065509 3.34227572 0 3 C0 2.01 0 1.02 0 0 Z M84 24 C83.67 106.5 83.34 189 83 274 C138.54324725 275.49650478 138.54324725 275.49650478 195.375 271.75 C196.73165771 271.55603638 196.73165771 271.55603638 198.11572266 271.3581543 C216.96774023 268.45745897 235.75930734 261.00002625 250 248 C250 247.34 250 246.68 250 246 C250.99 245.67 251.98 245.34 253 245 C278.82257448 217.87628804 287.00411966 178.76876707 286.25 142.37109375 C285.406137 119.78510056 281.58824409 98.07641087 271 78 C270.46632813 76.95328125 269.93265625 75.9065625 269.3828125 74.828125 C265.01023864 66.75246227 259.4348806 60.45323975 253 54 C251.93845703 52.90365234 251.93845703 52.90365234 250.85546875 51.78515625 C210.13423027 12.46541355 129.5525624 24 84 24 Z M37 82 C38 84 38 84 38 84 Z M36 84 C35.43623657 85.24027954 35.43623657 85.24027954 34.86108398 86.50561523 C34.02802203 88.33835152 33.19495889 90.17108727 32.36187744 92.0038147 C30.70114798 95.65734335 29.04054036 99.31092731 27.38012695 102.96459961 C24.02138083 110.35507027 20.66142306 117.74498122 17.296875 125.1328125 C16.09348827 127.77592259 14.89038183 130.41916009 13.6875 133.0625 C13.38531555 133.72652832 13.0831311 134.39055664 12.77178955 135.07470703 C7.0256913 147.70589274 1.33741586 160.36281554 -4.34802246 173.02139282 C-9.50868668 184.50782509 -14.72264235 195.96636343 -20.01855469 207.39111328 C-23.58461802 215.08597423 -27.09363094 222.80425278 -30.5546875 230.546875 C-32.20209462 234.23130737 -33.86538284 237.90823282 -35.53727722 241.58161926 C-36.74860279 244.24497222 -37.95536415 246.91038133 -39.16165161 249.57601929 C-39.75904047 250.89333467 -40.35836579 252.20977372 -40.95968628 253.52529907 C-41.80250419 255.36998539 -42.63773836 257.2181309 -43.47265625 259.06640625 C-43.96000244 260.13834229 -44.44734863 261.21027832 -44.94946289 262.31469727 C-46.18216456 264.98505449 -46.18216456 264.98505449 -46 268 C-18.28 268 9.44 268 38 268 C38.05823903 235.90332523 38.05823903 235.90332523 38.09765625 203.80664062 C38.1095381 190.7236983 38.12352995 177.64078168 38.15087891 164.55786133 C38.17078474 155.03098415 38.18370976 145.50412776 38.18817699 135.97723037 C38.19078913 130.93067815 38.19694779 125.8841854 38.21146011 120.83765221 C38.22499971 116.09107401 38.22923 111.34457999 38.22621536 106.59798431 C38.22676715 104.85284023 38.23076611 103.10769342 38.23841095 101.36256599 C38.2483156 98.98568059 38.24598541 96.60911585 38.24050903 94.23222351 C38.24924756 93.18893883 38.24924756 93.18893883 38.25816262 92.1245777 C38.23555191 88.51065618 38.06800657 87.10200985 36 84 Z M-133 317 C-133.79148437 317.64453125 -134.58296875 318.2890625 -135.3984375 318.953125 C-160.9223844 340.69276432 -172.69965304 374.08295997 -175.41015625 406.7265625 C-177.21294437 429.39276707 -177.21294437 429.39276707 -168.8125 449.5625 C-165.73222166 451.13686448 -163.53244757 451.57745215 -160.10546875 450.90234375 C-153.21717125 447.95021625 -149.51724842 440.46382552 -146.1953125 434.13671875 C-145.85025665 433.4838942 -145.50520081 432.83106964 -145.14968872 432.15846252 C-141.78074233 425.70832729 -138.74788291 419.12072008 -135.78457642 412.4765625 C-134.19150142 408.90525234 -132.58112818 405.34173912 -130.97265625 401.77734375 C-130.64555161 401.05143036 -130.31844696 400.32551697 -129.98143005 399.5776062 C-125.931475 390.60513949 -121.75068871 381.6940436 -117.56787109 372.78295898 C-114.93762057 367.174026 -112.3261004 361.56299788 -109.84838867 355.88476562 C-108.95212824 353.89364893 -107.97916146 351.95155076 -107 350 C-106.29055131 348.48602011 -105.58797815 346.96880788 -104.890625 345.44921875 C-104.47216309 344.53736816 -104.05370117 343.62551758 -103.62255859 342.68603516 C-102.94314209 341.20176025 -102.94314209 341.20176025 -102.25 339.6875 C-101.77771973 338.6567334 -101.30543945 337.6259668 -100.81884766 336.56396484 C-96.01116974 326.05404913 -91.25607692 315.52045694 -86.50878906 304.9831543 C-86.2159201 304.33339127 -85.92305115 303.68362823 -85.62130737 303.01417542 C-84.8218588 301.24025591 -84.02297182 299.46608334 -83.22412109 297.69189453 C-82.50765828 296.11636223 -81.77403114 294.54806227 -81 293 C-99.08129147 293 -119.71664761 305.95336331 -133 317 Z " fill="#D5B6A1" transform="translate(462,225)"/>
<path d="M0 0 C22.33357593 -0.04699714 44.66714355 -0.08212323 67.00075912 -0.10362434 C77.37373267 -0.11387892 87.74667525 -0.12782599 98.11962891 -0.15087891 C107.17467118 -0.17099307 116.229691 -0.18375854 125.28475499 -0.18817699 C130.06662229 -0.19075431 134.84842545 -0.19668602 139.63027191 -0.21146011 C176.42717606 -0.32052282 211.56566076 1.02961634 247 12 C247 12.66 247 13.32 247 14 C247.66 14.33 248.32 14.66 249 15 C244.03001526 13.91979433 239.08127716 12.78602092 234.14453125 11.5625 C219.41581999 7.91668795 205.28387056 4.43855169 190 5 C190 4.34 190 3.68 190 3 C188.90655273 3.03029297 187.81310547 3.06058594 186.68652344 3.09179688 C162.50108669 3.73949599 138.32617274 4.04403756 114.1328125 4.03125 C113.09702057 4.03074142 112.06122864 4.03023285 110.99404907 4.02970886 C100.45072497 4.02300497 89.90746658 4.00457817 79.36419106 3.97194672 C75.35789911 3.96025606 71.35160415 3.95215346 67.34530258 3.94456482 C64.53837114 3.93761436 61.73150115 3.92499735 58.92459106 3.91223145 C57.2321173 3.90864145 55.53964291 3.90532912 53.84716797 3.90234375 C53.07568295 3.89717995 52.30419792 3.89201614 51.50933456 3.88669586 C47.62712024 3.81003732 47.62712024 3.81003732 44 5 C44 4.34 44 3.68 44 3 C43.37996094 3.0721875 42.75992188 3.144375 42.12109375 3.21875 C35.05769738 3.95901861 28.17734432 4.01972955 21.08984375 3.83984375 C17.89385788 3.6597712 17.89385788 3.6597712 16 6 C16.969375 6.598125 17.93875 7.19625 18.9375 7.8125 C22 10 22 10 23 13 C23.99 13.33 24.98 13.66 26 14 C27.33984531 16.26135465 28.50311743 18.4475145 29.625 20.8125 C29.93695313 21.44220703 30.24890625 22.07191406 30.5703125 22.72070312 C33.2204317 28.16372811 34.13689786 31.97649401 34 38 C34.66 38.33 35.32 38.66 36 39 C35.55035228 44.30584305 34.98861466 47.51707801 32 52 C30.98034573 54.32481174 29.97940398 56.65794699 29 59 C28.608125 59.70125 28.21625 60.4025 27.8125 61.125 C26.78362558 63.49932558 26.85782977 65.44093582 27 68 C26.34 68 25.68 68 25 68 C24.731875 68.9075 24.46375 69.815 24.1875 70.75 C23.08829381 73.75835378 21.91391727 75.50358617 20 78 C19.33820153 79.98045559 19.33820153 79.98045559 19 82 C18.66666667 83.33333333 18.33333333 84.66666667 18 86 C17.34 86 16.68 86 16 86 C15.6596875 87.1446875 15.6596875 87.1446875 15.3125 88.3125 C13.86564616 92.37747033 12.10356563 96.21568073 10.29296875 100.12890625 C8.73522686 103.58794036 7.35981285 107.10229443 5.984375 110.63671875 C5.00004831 112.99988401 3.87901049 115.23531397 2.6875 117.5 C2.130625 118.655 1.57375 119.81 1 121 C1.33 121.66 1.66 122.32 2 123 C1.236875 123.6909375 0.47375 124.381875 -0.3125 125.09375 C-3.15093413 128.16321946 -4.44328334 130.64358827 -6 134.5 C-6.24782227 135.10513428 -6.49564453 135.71026855 -6.75097656 136.33374023 C-7.51636538 138.21666514 -8.2612141 140.10649369 -9 142 C-9.46921875 143.19753906 -9.9384375 144.39507812 -10.421875 145.62890625 C-11.26284165 147.80305238 -12.09703886 149.97983939 -12.921875 152.16015625 C-13.91875232 154.78598889 -14.9486695 157.39556763 -16 160 C-16.66 160 -17.32 160 -18 160 C-18.185625 161.175625 -18.185625 161.175625 -18.375 162.375 C-19 165 -19 165 -21 167 C-21.1546875 168.546875 -21.1546875 168.546875 -21.3125 170.125 C-21.93152382 173.61404335 -22.27680496 174.74275789 -24.125 177.5 C-30.13540385 186.48106322 -34.01760009 196.98151172 -38.30200195 206.87036133 C-40.46997534 211.85097113 -42.74030514 216.7770542 -45.0625 221.6875 C-45.39564209 222.39261719 -45.72878418 223.09773437 -46.07202148 223.82421875 C-47.35646869 226.53880787 -48.64301171 229.2523523 -49.93701172 231.96240234 C-50.7963308 233.76423039 -51.64836252 235.56952854 -52.5 237.375 C-52.9846875 238.39335937 -53.469375 239.41171875 -53.96875 240.4609375 C-55.18815029 243.00649959 -55.18815029 243.00649959 -55 246 C-55.9590625 247.175625 -55.9590625 247.175625 -56.9375 248.375 C-59.05832277 251.07422898 -59.61677737 252.64680201 -60 256 C-60.66 256 -61.32 256 -62 256 C-62.37125 257.2375 -62.37125 257.2375 -62.75 258.5 C-66.5 269 -66.5 269 -71 272 C-73.60409627 272.71388655 -76.17972153 273.35288965 -78.8125 273.9375 C-79.56644043 274.11007324 -80.32038086 274.28264648 -81.09716797 274.46044922 C-85.93047587 275.55971407 -90.77571448 276.5988891 -95.625 277.625 C-103.41073246 279.27946815 -110.81557631 281.5830811 -118.328125 284.1953125 C-121 285 -121 285 -124 285 C-124 285.66 -124 286.32 -124 287 C-124.59167969 287.18175781 -125.18335938 287.36351562 -125.79296875 287.55078125 C-130.23337478 288.96330845 -134.09901805 290.39934537 -138 293 C-139.28920295 293.81640357 -140.58112609 294.62851957 -141.875 295.4375 C-142.49117188 295.82808594 -143.10734375 296.21867187 -143.7421875 296.62109375 C-145.57314558 297.73930863 -147.44895046 298.78385845 -149.3359375 299.8046875 C-153.20754897 302.00439618 -156.43082919 304.73929534 -159.75 307.6875 C-165.60942907 312.86980969 -165.60942907 312.86980969 -169 314 C-169.70742661 315.31216227 -170.3680274 316.64987672 -171 318 C-172.12304892 319.45148775 -173.29221983 320.8682176 -174.5 322.25 C-175.41265625 323.30960938 -175.41265625 323.30960938 -176.34375 324.390625 C-178 326 -178 326 -180 326 C-180.33 327.32 -180.66 328.64 -181 330 C-181.66 330 -182.32 330 -183 330 C-183.34417969 330.76957031 -183.34417969 330.76957031 -183.6953125 331.5546875 C-185.13099208 334.2455121 -186.79438214 336.67379404 -188.52905273 339.17822266 C-192.46099994 344.86538881 -195.96918831 350.24312742 -198.18359375 356.8515625 C-199 359 -199 359 -200.4296875 361.28515625 C-202.3866422 364.66844858 -203.51153892 368.09987364 -204.6875 371.8125 C-204.91244141 372.50537109 -205.13738281 373.19824219 -205.36914062 373.91210938 C-205.91828909 375.60629082 -206.45991862 377.30290633 -207 379 C-207.33 379 -207.66 379 -208 379 C-208.42087383 372.40129964 -207.18105128 367.871343 -204.5 361.875 C-204.1376123 361.04532715 -203.77522461 360.2156543 -203.40185547 359.36083984 C-195.86842837 342.45219148 -185.63412257 328.44922725 -173 315 C-172.21302734 314.11634766 -172.21302734 314.11634766 -171.41015625 313.21484375 C-166.35533307 307.7741562 -160.24521819 303.6561902 -154.23046875 299.35546875 C-151.09026817 297.19343898 -151.09026817 297.19343898 -149 295 C-124.76362641 280.39513326 -97.87580555 272.70810015 -70 269 C-69.72397949 268.12956055 -69.44795898 267.25912109 -69.16357422 266.36230469 C-68.06716796 263.19409087 -66.80543394 260.23664865 -65.3828125 257.203125 C-64.86485107 256.09380615 -64.34688965 254.9844873 -63.81323242 253.84155273 C-63.25611572 252.65634033 -62.69899902 251.47112793 -62.125 250.25 C-61.53647009 248.99115146 -60.94834211 247.73211494 -60.3605957 246.47290039 C-59.15538979 243.89108888 -57.94897179 241.30984963 -56.74169922 238.72900391 C-46.68687819 217.21865935 -36.82921509 195.61425878 -27 174 C-26.67183289 173.2783667 -26.34366577 172.5567334 -26.0055542 171.81323242 C-24.11995092 167.66427523 -22.2396352 163.51298459 -20.3666687 159.35830688 C-19.79249182 158.08575266 -19.21708783 156.81375134 -18.64041138 155.54232788 C-17.85037469 153.79939951 -17.06566312 152.05406025 -16.28125 150.30859375 C-15.83845703 149.32689209 -15.39566406 148.34519043 -14.93945312 147.33374023 C-13.87552297 145.11006963 -13.87552297 145.11006963 -14 143 C-13.34 143 -12.68 143 -12 143 C-11.7436377 142.17193848 -11.48727539 141.34387695 -11.22314453 140.49072266 C-9.85232575 136.57855361 -8.19093952 132.89646348 -6.4296875 129.1484375 C-5.6978887 127.57545246 -4.96611916 126.00245381 -4.234375 124.42944336 C-3.84958984 123.60540009 -3.46480469 122.78135681 -3.06835938 121.93234253 C3.74841986 107.32413664 10.44704207 92.6658966 17 77.9375 C17.51364105 76.78722321 17.51364105 76.78722321 18.03765869 75.6137085 C19.00746231 73.4404878 19.97322764 71.26552343 20.9375 69.08984375 C21.22003632 68.45712051 21.50257263 67.82439728 21.79367065 67.17250061 C23.03994706 64.34620138 24.13633869 61.56779263 25.06640625 58.61938477 C26 56 26 56 28 55 C28.72045764 53.0187415 29.38001259 51.01495907 30 49 C30.391875 48.2575 30.78375 47.515 31.1875 46.75 C33.5189784 38.85884234 30.34456242 30.18035745 27 23 C25.51621659 20.540629 23.95675561 18.19867102 22.26953125 15.875 C21 14 21 14 20 11 C16.58564772 8.88958358 12.74356485 7.93095897 8.92578125 6.78125 C7 6 7 6 6 4 C2.97065509 3.34227572 2.97065509 3.34227572 0 3 C0 2.01 0 1.02 0 0 Z " fill="#E9D1BD" transform="translate(462,225)"/>
<path d="M0 0 C0.99 0.495 0.99 0.495 2 1 C2.98734643 6.61330148 3.14111097 12.11608783 3.11523438 17.80273438 C3.1152092 18.66331451 3.11518402 19.52389465 3.11515808 20.41055298 C3.11332513 23.30498584 3.10372716 26.19933448 3.09375 29.09375 C3.08993251 31.19828253 3.08631754 33.30281544 3.08288574 35.40734863 C3.02206697 63.79993596 2.77999526 92.19221308 2.55461884 120.58387089 C2.49265506 128.39850646 2.43289152 136.21315848 2.37324238 144.027812 C2.25113949 160.01855969 2.12649405 176.0092864 2 192 C1.67 192 1.34 192 1 192 C1 131.94 1 71.88 1 10 C-0.32 10.33 -1.64 10.66 -3 11 C-4.30635696 13.23726411 -5.30867163 15.29539072 -6.29296875 17.671875 C-6.5959639 18.36835144 -6.89895905 19.06482788 -7.21113586 19.78240967 C-7.86939556 21.29965874 -8.52090447 22.8198501 -9.16650391 24.3425293 C-10.5581071 27.62387771 -11.98190381 30.89090914 -13.40444946 34.15893555 C-14.14884709 35.86934928 -14.89163974 37.58046234 -15.63290405 39.29223633 C-19.11696328 47.32344171 -22.76123886 55.27613339 -26.4425354 63.21844482 C-32.58341738 76.46783498 -38.59616577 89.76835505 -44.5 103.125 C-48.88223608 113.038924 -53.29866769 122.92219074 -57.99121094 132.69433594 C-61.6849427 140.38931589 -65.16651266 148.17602438 -68.64599609 155.96972656 C-70.24645828 159.55157595 -71.85145111 163.13138004 -73.45703125 166.7109375 C-74.05892288 168.05289552 -74.6608109 169.39485515 -75.26269531 170.73681641 C-75.70917419 171.73228485 -75.70917419 171.73228485 -76.16467285 172.74786377 C-78.44429711 177.83137937 -80.72203571 182.9157404 -83 188 C-84.07910156 186.19824219 -84.07910156 186.19824219 -85 184 C-84.02969735 181.56825385 -83.03227097 179.50551736 -81.75 177.25 C-79.04491094 172.21718475 -77.01547376 167.6415209 -76 162 C-75.34 162 -74.68 162 -74 162 C-73.896875 161.30003906 -73.79375 160.60007812 -73.6875 159.87890625 C-72.89667524 156.56732755 -71.58344838 153.94833574 -70 150.9375 C-68.25909124 147.61889267 -66.78369431 144.66540357 -66 141 C-65.67 140.34 -65.34 139.68 -65 139 C-64.34 139 -63.68 139 -63 139 C-62.87753906 138.29488281 -62.75507813 137.58976563 -62.62890625 136.86328125 C-61.96594799 133.84496817 -61.01824425 131.08110558 -59.9375 128.1875 C-59.57527344 127.21167969 -59.21304687 126.23585938 -58.83984375 125.23046875 C-58.56269531 124.49441406 -58.28554688 123.75835937 -58 123 C-57.34 123 -56.68 123 -56 123 C-55.7525 122.21625 -55.505 121.4325 -55.25 120.625 C-53.66046408 116.01534583 -51.83266036 111.51722144 -50 107 C-49.33248091 105.33367456 -48.66571797 103.66704583 -48 102 C-47.33333333 100.33333333 -46.66666667 98.66666667 -46 97 C-45.34 97 -44.68 97 -44 97 C-44 95.35 -44 93.7 -44 92 C-43.34 92 -42.68 92 -42 92 C-41.67 89.69 -41.34 87.38 -41 85 C-40.34 85 -39.68 85 -39 85 C-37.97493954 82.06149334 -37.04545662 79.25569351 -36.5 76.1875 C-36.335 75.465625 -36.17 74.74375 -36 74 C-35.34 73.67 -34.68 73.34 -34 73 C-33.26924352 70.6859378 -32.59861742 68.35171131 -32 66 C-31.34 66 -30.68 66 -30 66 C-30 64.68 -30 63.36 -30 62 C-29.34 62 -28.68 62 -28 62 C-28 60.35 -28 58.7 -28 57 C-27.34 57 -26.68 57 -26 57 C-26 55.68 -26 54.36 -26 53 C-25.34 53 -24.68 53 -24 53 C-23.896875 52.29875 -23.79375 51.5975 -23.6875 50.875 C-22.90591613 47.60655835 -21.4996691 44.9993382 -20 42 C-19.30092586 39.26427415 -19.30092586 39.26427415 -19 37 C-18.34 37 -17.68 37 -17 37 C-16.80664062 36.41992188 -16.61328125 35.83984375 -16.4140625 35.2421875 C-15.87565065 33.62695194 -15.33519761 32.0123957 -14.79296875 30.3984375 C-14.14596483 28.44148969 -13.53622048 26.47225571 -12.9375 24.5 C-12 22 -12 22 -10 21 C-9.20006976 19.01866275 -9.20006976 19.01866275 -8.5625 16.6875 C-7.47768706 13.20178126 -6.26042495 10.87690448 -4 8 C-3.835 7.154375 -3.67 6.30875 -3.5 5.4375 C-2.93360318 2.67631549 -2.13583643 1.76438662 0 0 Z M-1 5 C0 7 0 7 0 7 Z " fill="#E9D0BC" transform="translate(500,302)"/>
<path d="M0 0 C-1 2 -1 2 -2.40625 3.33203125 C-6.87459117 8.00845694 -9.12007248 15.02983221 -11.2421875 21.0546875 C-12.34030075 23.87355553 -13.77061888 26.49430538 -15.23046875 29.140625 C-16.2549393 31.28060788 -16.2549393 31.28060788 -16 35 C-16.66 35 -17.32 35 -18 35 C-18.37125 36.2684375 -18.37125 36.2684375 -18.75 37.5625 C-19.72720635 40.24981747 -20.67837488 42.27645813 -22.125 44.6875 C-24.24629911 47.80073718 -24.24629911 47.80073718 -24 51 C-24.99273812 52.00720952 -25.99410045 53.00593456 -27 54 C-29.57043572 58.79001078 -31.79173822 63.80069964 -33.1875 69.0625 C-34 72 -34 72 -36 74 C-36.8188627 75.83025503 -36.8188627 75.83025503 -37.5 77.875 C-40.30980066 85.65490033 -40.30980066 85.65490033 -43 87 C-43.66210092 89.02115017 -44.31855907 91.04425528 -44.953125 93.07421875 C-46.47089032 97.31603301 -48.43069294 101.33348087 -50.37280273 105.39208984 C-52.5047055 109.86857657 -54.39524952 114.37927698 -56.078125 119.046875 C-57.08432969 121.17866459 -58.2474492 122.44436502 -60 124 C-59.46418872 118.76351054 -58.24658596 114.77012693 -56.0078125 109.94140625 C-55.55461891 108.95395164 -55.55461891 108.95395164 -55.0922699 107.94654846 C-54.11148495 105.81458605 -53.11822723 103.68869002 -52.125 101.5625 C-51.44559915 100.0894604 -50.76713971 98.61598625 -50.08959961 97.14208984 C-48.07067061 92.75628665 -46.03709853 88.37738775 -44 84 C-42.33496681 80.42046252 -40.67094551 76.8404816 -39.01318359 73.25756836 C-38.06498966 71.21006308 -37.11112026 69.16517401 -36.15087891 67.12329102 C-35.73112793 66.21893311 -35.31137695 65.3145752 -34.87890625 64.3828125 C-34.5135376 63.60309082 -34.14816895 62.82336914 -33.77172852 62.02001953 C-32.82155875 59.89332806 -32.82155875 59.89332806 -33 57 C-32.34 56.67 -31.68 56.34 -31 56 C-29.91202643 54.1039946 -29.91202643 54.1039946 -28.890625 51.7421875 C-28.47208252 50.82058838 -28.05354004 49.89898926 -27.62231445 48.94946289 C-27.16945068 47.93489014 -26.71658691 46.92031738 -26.25 45.875 C-25.54266724 44.30963501 -25.54266724 44.30963501 -24.82104492 42.71264648 C-23.78156307 40.41068499 -22.74484903 38.10747227 -21.71044922 35.80322266 C-19.87257191 31.71090753 -18.01646341 27.62694857 -16.16015625 23.54296875 C-15.19483535 21.41644099 -14.22991599 19.28973174 -13.26525879 17.16290283 C-12.62927952 15.76085577 -11.99296679 14.35895991 -11.35632324 12.95721436 C-10.460867 10.98406723 -9.56795632 9.00978873 -8.67578125 7.03515625 C-7.9010144 5.32404663 -7.9010144 5.32404663 -7.1105957 3.57836914 C-5.93406701 1.31482686 -5.93406701 1.31482686 -6 0 C-24.65118005 4.31442527 -41.19967388 11.68755031 -56 24 C-56.80308594 24.65613281 -57.60617187 25.31226563 -58.43359375 25.98828125 C-79.0763332 43.6038483 -88.80272867 68.24860546 -95 94 C-95.66 93.67 -96.32 93.34 -97 93 C-96.67920889 83.05547545 -93.30592547 74.280855 -90 65 C-89.34 65 -88.68 65 -88 65 C-88.495 62.525 -88.495 62.525 -89 60 C-87.515 59.505 -87.515 59.505 -86 59 C-85.28203333 57.35478084 -84.62459968 55.68288367 -84 54 C-82.84914583 52.10228666 -81.65976036 50.22752823 -80.4375 48.375 C-78.56250053 45.52936671 -77.0790587 43.23717611 -76 40 C-75.34 40 -74.68 40 -74 40 C-73.73832031 39.4328125 -73.47664063 38.865625 -73.20703125 38.28125 C-69.99505673 32.21072211 -65.49340489 27.08081506 -60 23 C-59.34 22.01 -58.68 21.02 -58 20 C-55.9765625 18.71875 -55.9765625 18.71875 -53.625 17.5 C-51.19440752 16.2318648 -49.01620059 15.01239901 -46.8359375 13.34375 C-45 12 -45 12 -43 12 C-42.67 11.01 -42.34 10.02 -42 9 C-41.01 9 -40.02 9 -39 9 C-35.67708403 7.28155269 -32.46332718 5.40634126 -29.2265625 3.53125 C-26.08825209 2.04188235 -24.40034389 1.64340963 -21 2 C-21 1.34 -21 0.68 -21 0 C-18.94077867 -0.53364887 -16.87743893 -1.05142189 -14.8125 -1.5625 C-13.66394531 -1.85253906 -12.51539063 -2.14257812 -11.33203125 -2.44140625 C-6.49212906 -3.25278493 -4.06595241 -2.71063494 0 0 Z M-41 84 C-40.01 84.495 -40.01 84.495 -39 85 C-39.99 85.495 -39.99 85.495 -41 86 C-41 85.34 -41 84.68 -41 84 Z " fill="#E2C7B2" transform="translate(385,519)"/>
<path d="M0 0 C7.74738835 -0.02589195 15.49476511 -0.04308688 23.2421875 -0.05493164 C25.86395381 -0.05930523 28.48566115 -0.06664494 31.10742188 -0.07543945 C49.43478317 -0.13526379 67.69053068 0.20157361 86 1 C86.495 2.485 86.495 2.485 87 4 C76.08230602 4.02313538 65.16461784 4.04092121 54.24690437 4.05181217 C49.17777772 4.05703837 44.1086678 4.06413128 39.03955078 4.07543945 C34.15071319 4.08627763 29.26189173 4.09227882 24.37304306 4.09487724 C22.50466533 4.09672981 20.63628852 4.10034721 18.76791763 4.10573006 C16.15792154 4.11295281 13.54799271 4.11399041 10.93798828 4.11352539 C9.77058105 4.1189183 9.77058105 4.1189183 8.57958984 4.12442017 C3.22810432 4.11405216 3.22810432 4.11405216 1 3 C1 58.11 1 113.22 1 170 C0.67 170 0.34 170 0 170 C-0.33 164.06 -0.66 158.12 -1 152 C-1.33 152 -1.66 152 -2 152 C-2.17030479 147.41451467 -2.33051087 142.82881547 -2.48217773 138.24267578 C-2.5348787 136.68919864 -2.59013123 135.13580553 -2.64819336 133.58251953 C-2.73216092 131.32342711 -2.80630886 129.06417087 -2.87890625 126.8046875 C-2.90594131 126.133237 -2.93297638 125.4617865 -2.96083069 124.76998901 C-3.08898805 120.43575915 -2.87575843 116.21449174 -2.50927734 111.89355469 C-1.80071526 102.63984109 -1.9041302 93.39816641 -1.95540047 84.12244797 C-1.97299396 80.83534041 -1.98315132 77.54828269 -1.99131775 74.26113892 C-2.01561132 64.92648633 -2.05158536 55.59190233 -2.09594727 46.25732422 C-2.12269055 40.52241068 -2.1397531 34.78753451 -2.15081596 29.05257034 C-2.15702359 26.87323229 -2.1670262 24.69390161 -2.18089485 22.51459885 C-2.20006149 19.48022383 -2.20699899 16.44604838 -2.21118164 13.41162109 C-2.21994324 12.51292297 -2.22870483 11.61422485 -2.23773193 10.68829346 C-2.23642776 9.86161163 -2.2351236 9.03492981 -2.23377991 8.18319702 C-2.23692231 7.46763327 -2.24006472 6.75206951 -2.24330235 6.01482201 C-1.96009419 3.66953422 -1.15785991 2.04284608 0 0 Z " fill="#E5CCB9" transform="translate(545,246)"/>
<path d="M0 0 C13.65513717 13.65513717 13.78484458 48.28965476 14.04345703 65.97119141 C13.93909233 102.33308264 4.45624069 139.70813175 -20.93359375 166.7734375 C-22.63529262 168.60702608 -24.1582831 170.46401519 -25.6875 172.4375 C-39.50113016 188.61048297 -65.23167149 203.73896976 -86 208 C-88.32421875 207.58984375 -88.32421875 207.58984375 -90 207 C-86.9336512 204.95576747 -84.36141761 204.03174644 -80.875 202.875 C-61.29781517 196.46547179 -61.29781517 196.46547179 -46 184 C-44.00892752 182.98234073 -42.00781177 181.98422146 -40 181 C-36.7122552 178.57333122 -33.84086702 175.92964412 -31 173 C-28.52162628 170.45807823 -26.13107701 168.10059398 -23.3125 165.9375 C-21.04518336 164.03785633 -20.06752752 162.71734277 -19 160 C-18.34 160 -17.68 160 -17 160 C-16.9175 159.2575 -16.835 158.515 -16.75 157.75 C-15.83699883 154.40232905 -14.43560409 153.43560409 -12 151 C-10.52145292 148.39875954 -9.24171148 145.7211975 -8 143 C-7.34 143 -6.68 143 -6 143 C-5.74992188 142.21238281 -5.49984375 141.42476562 -5.2421875 140.61328125 C-4.28919944 137.84122479 -3.28028189 135.13816581 -2.1953125 132.41796875 C6.16389004 111.39306367 10.38520046 90.91996504 10.26074219 68.2565918 C10.24999199 65.93577062 10.26072749 63.61572032 10.2734375 61.29492188 C10.70458891 46.13439783 10.70458891 46.13439783 6.90722656 31.82006836 C5.53659187 29.0703155 6.33948004 26.90628783 7 24 C6.34 23.67 5.68 23.34 5 23 C5.66 23 6.32 23 7 23 C6.649375 22.38125 6.29875 21.7625 5.9375 21.125 C5.4734375 20.073125 5.4734375 20.073125 5 19 C5.33 18.34 5.66 17.68 6 17 C5.34 17 4.68 17 4 17 C2 11 2 11 0 5 C0.33 4.34 0.66 3.68 1 3 C0.01 2.505 0.01 2.505 -1 2 C-0.67 1.34 -0.34 0.68 0 0 Z " fill="#BE9B83" transform="translate(786,305)"/>
<path d="M0 0 C0.33 0 0.66 0 1 0 C1 26.4 1 52.8 1 80 C1.99 80.495 1.99 80.495 3 81 C2.67 84.63 2.34 88.26 2 92 C2.99 92.495 2.99 92.495 4 93 C4 95.83995124 3.8849447 98.2876903 3.5 101.0625 C2.93701373 104.83449702 2.93701373 104.83449702 3 108 C2.59821097 113.04373458 2.15169976 118.06414388 1 123 C1.99 123.495 1.99 123.495 3 124 C1.68 125.32 0.36 126.64 -1 128 C-0.34 128.33 0.32 128.66 1 129 C0.2575 130.3921875 0.2575 130.3921875 -0.5 131.8125 C-2.21289852 134.86527516 -2.21289852 134.86527516 -2 138 C-2.66 138 -3.32 138 -4 138 C-3.773125 138.598125 -3.54625 139.19625 -3.3125 139.8125 C-3.209375 140.534375 -3.10625 141.25625 -3 142 C-3.97844017 143.02110471 -4.98215781 144.01816637 -6 145 C-6.75828739 146.23255193 -7.48621694 147.4841461 -8.1875 148.75 C-11.75868128 154.61539471 -16.75036218 159.13268287 -23 162 C-23 162.66 -23 163.32 -23 164 C-22.01 163.67 -21.02 163.34 -20 163 C-20 163.66 -20 164.32 -20 165 C-13.4 165 -6.8 165 0 165 C0 165.33 0 165.66 0 166 C-1.03640625 166.06058594 -2.0728125 166.12117187 -3.140625 166.18359375 C-4.51042873 166.26803371 -5.88021975 166.35267997 -7.25 166.4375 C-7.93191406 166.47681641 -8.61382812 166.51613281 -9.31640625 166.55664062 C-12.66567579 166.7680023 -15.7556273 167.17284558 -19 168 C-19.33 167.67 -19.66 167.34 -20 167 C-21.60163916 166.90080923 -23.20779918 166.87030102 -24.8125 166.875 C-25.68519531 166.87242187 -26.55789063 166.86984375 -27.45703125 166.8671875 C-29.94920316 166.900305 -29.94920316 166.900305 -32.05859375 167.59765625 C-34.57306103 168.11876315 -35.90144695 167.54106377 -38.25 166.5625 C-38.95640625 166.27503906 -39.6628125 165.98757813 -40.390625 165.69140625 C-40.92171875 165.46324219 -41.4528125 165.23507812 -42 165 C-42 164.67 -42 164.34 -42 164 C-41.31035156 163.82984375 -40.62070312 163.6596875 -39.91015625 163.484375 C-27.91675297 160.39142601 -17.42092944 156.4788212 -10.25 145.875 C0.71054765 127.19962496 -0.70014091 104.561882 -0.83984375 83.57421875 C-0.84613727 81.4037961 -0.85136959 79.23337014 -0.85560608 77.0629425 C-0.86874363 71.4191432 -0.89310974 65.77545767 -0.92095947 60.13171387 C-0.96454019 51.05695369 -0.99388445 41.98216054 -1.0170002 32.90732765 C-1.02715169 29.75878856 -1.04419253 26.61034165 -1.06199646 23.46183777 C-1.06882533 21.52883992 -1.07543405 19.59584127 -1.08178711 17.6628418 C-1.08852448 16.79887283 -1.09526184 15.93490387 -1.10220337 15.04475403 C-1.1117179 9.93706556 -0.73675313 5.05582156 0 0 Z " fill="#C4A38C" transform="translate(500,607)"/>
<path d="M0 0 C0.99 1.98 0.99 1.98 2 4 C1.57847656 4.61488281 1.15695312 5.22976563 0.72265625 5.86328125 C0.17480469 6.67152344 -0.37304688 7.47976563 -0.9375 8.3125 C-1.48277344 9.11300781 -2.02804687 9.91351563 -2.58984375 10.73828125 C-4.13837326 13.0258143 -4.13837326 13.0258143 -5 16 C-6.72458718 17.58509851 -8.54950073 18.97553847 -10.40625 20.40234375 C-12.26452593 22.26517428 -12.41595891 23.49116264 -13 26 C-14.94982535 27.40568804 -16.95950578 28.7295036 -19 30 C-21.04961576 31.61470858 -23.01822265 33.3013337 -25 35 C-25.33 34.67 -25.66 34.34 -26 34 C-26.721875 34.763125 -27.44375 35.52625 -28.1875 36.3125 C-31.53581702 39.51200293 -34.80115057 41.413329 -38.9375 43.4375 C-42.07398082 44.93876335 -42.07398082 44.93876335 -44.9375 47.125 C-48.41771988 49.25574687 -50.97138857 49.62698042 -55 50 C-57.27650745 50.3577614 -57.27650745 50.3577614 -59 51 C-59.495 51.99 -59.495 51.99 -60 53 C-62.31 52.67 -64.62 52.34 -67 52 C-67.495 52.99 -67.495 52.99 -68 54 C-68.66 54 -69.32 54 -70 54 C-70 53.34 -70 52.68 -70 52 C-70.66 52.66 -71.32 53.32 -72 54 C-72.66 54.66 -73.32 55.32 -74 56 C-74 55.34 -74 54.68 -74 54 C-76.31 54 -78.62 54 -81 54 C-81.33 54.66 -81.66 55.32 -82 56 C-82.66 56 -83.32 56 -84 56 C-84 55.34 -84 54.68 -84 54 C-88.455 54.495 -88.455 54.495 -93 55 C-93 55.66 -93 56.32 -93 57 C-96.465 57.495 -96.465 57.495 -100 58 C-100.33 56.68 -100.66 55.36 -101 54 C-101 54.66 -101 55.32 -101 56 C-103.475 56.495 -103.475 56.495 -106 57 C-106 56.34 -106 55.68 -106 55 C-106.66 54.34 -107.32 53.68 -108 53 C-107.44876465 52.98541748 -106.8975293 52.97083496 -106.32958984 52.95581055 C-77.23233911 52.10706576 -46.64481745 49.58526284 -23.8203125 29.46875 C-22 28 -22 28 -20 28 C-20 27.34 -20 26.68 -20 26 C-18.86241031 24.82793789 -17.71816303 23.66182418 -16.546875 22.5234375 C-9.69213461 15.77255682 -4.83760862 8.24278248 0 0 Z M-132 54 C-124.08 54 -116.16 54 -108 54 C-109.32 55.32 -110.64 56.64 -112 58 C-112.33 57.34 -112.66 56.68 -113 56 C-113.99 56.33 -114.98 56.66 -116 57 C-116 56.34 -116 55.68 -116 55 C-116.53109375 55.17402344 -117.0621875 55.34804688 -117.609375 55.52734375 C-120.61306572 56.12121071 -123.20668028 55.86021606 -126.25 55.5625 C-127.32765625 55.46066406 -128.4053125 55.35882813 -129.515625 55.25390625 C-130.33546875 55.17011719 -131.1553125 55.08632813 -132 55 C-132 54.67 -132 54.34 -132 54 Z " fill="#C8A78F" transform="translate(732,445)"/>
<path d="M0 0 C22.33357593 -0.04699714 44.66714355 -0.08212323 67.00075912 -0.10362434 C77.37373267 -0.11387892 87.74667525 -0.12782599 98.11962891 -0.15087891 C107.17467118 -0.17099307 116.229691 -0.18375854 125.28475499 -0.18817699 C130.06662229 -0.19075431 134.84842545 -0.19668602 139.63027191 -0.21146011 C176.42717606 -0.32052282 211.56566076 1.02961634 247 12 C247 12.66 247 13.32 247 14 C247.99 14.495 247.99 14.495 249 15 C241.75168593 13.41132842 234.52968703 11.72427177 227.3125 10 C226.21099609 9.73960937 225.10949219 9.47921875 223.97460938 9.2109375 C222.90662109 8.95570313 221.83863281 8.70046875 220.73828125 8.4375 C219.77962158 8.20933594 218.82096191 7.98117188 217.83325195 7.74609375 C215 7 215 7 212.27292633 6.02279472 C200.12702731 2.22718182 186.79378177 2.71743924 174.20117188 2.77294922 C172.37617499 2.77351491 170.55117765 2.77319369 168.72618103 2.77206421 C163.82435129 2.77149586 158.92262161 2.7831652 154.0208149 2.79721212 C148.87858731 2.8098069 143.73635684 2.81089682 138.59411621 2.81326294 C128.88002737 2.81945221 119.16598413 2.83582808 109.45191526 2.85596192 C98.38283741 2.87840089 87.31375726 2.88933437 76.24466228 2.89935279 C53.49641635 2.92019687 30.74821074 2.95532263 8 3 C9.32 3.99 10.64 4.98 12 6 C10.02 6 8.04 6 6 6 C6 5.34 6 4.68 6 4 C3.03 3.505 3.03 3.505 0 3 C0 2.01 0 1.02 0 0 Z " fill="#E2CAB8" transform="translate(462,225)"/>
<path d="M0 0 C0.33 0 0.66 0 1 0 C1.80299072 19.518493 2.13852464 38.98354207 2.09765625 58.51953125 C2.09578383 61.21335431 2.09431442 63.90717468 2.09336853 66.60099792 C2.09031007 72.87575027 2.08217405 79.15048434 2.07201904 85.42522877 C2.06068318 92.59142137 2.05530432 99.75761503 2.05032361 106.92381442 C2.03998405 121.61588545 2.02249586 136.3079424 2 151 C0 149 0 149 -0.16015625 146.55859375 C-0.12792969 145.52863281 -0.09570312 144.49867188 -0.0625 143.4375 C0.02703088 138.04774127 -0.1400379 132.74807825 -0.5 127.375 C-0.88266752 121.60143115 -1.08089882 115.89128988 -0.9375 110.1015625 C-0.90485627 107.80561976 -0.90485627 107.80561976 -2 105 C-1.68289063 104.236875 -1.36578125 103.47375 -1.0390625 102.6875 C0.2136448 99.44741494 0.0045344 97.44111191 -0.375 94 C-0.94959682 87.56998799 -1.12169743 81.20541705 -1.125 74.75 C-1.12935059 73.82058594 -1.13370117 72.89117188 -1.13818359 71.93359375 C-1.13641113 71.06347656 -1.13463867 70.19335938 -1.1328125 69.296875 C-1.13168457 68.51666992 -1.13055664 67.73646484 -1.12939453 66.93261719 C-1 65 -1 65 0 63 C-0.27206865 61.3222433 -0.61500109 59.65549531 -1 58 C-2.11111111 53.22222222 -2.11111111 53.22222222 -1 51 C-0.74818549 49.31843868 -0.54539231 47.6292522 -0.375 45.9375 C-0.27960937 45.03902344 -0.18421875 44.14054688 -0.0859375 43.21484375 C-0.05757812 42.48394531 -0.02921875 41.75304687 0 41 C-0.33 40.67 -0.66 40.34 -1 40 C-1.01698418 37.04112612 -0.97078886 34.10845163 -0.87890625 31.15234375 C-0.85529526 30.2659169 -0.83168427 29.37949005 -0.80735779 28.46620178 C-0.73052437 25.62314613 -0.64658529 22.78034954 -0.5625 19.9375 C-0.50929899 18.01498681 -0.45655848 16.09246083 -0.40429688 14.16992188 C-0.27488275 9.44644922 -0.13909382 4.72319712 0 0 Z " fill="#CBAC97" transform="translate(544,539)"/>
<path d="M0 0 C0.33 0 0.66 0 1 0 C1.8483047 32.08667394 2.09206128 64.153843 2.0625 96.25 C2.06164398 97.18602806 2.06078796 98.12205612 2.05990601 99.08644867 C2.0484758 110.7243186 2.02834203 122.36215917 2 134 C5.96 134.33 9.92 134.66 14 135 C12 137 12 137 9.1796875 137.1953125 C8.08914063 137.17210937 6.99859375 137.14890625 5.875 137.125 C4.77929688 137.10695313 3.68359375 137.08890625 2.5546875 137.0703125 C1.71164062 137.04710937 0.86859375 137.02390625 0 137 C-0.33 134.69 -0.66 132.38 -1 130 C-0.67 130 -0.34 130 0 130 C0.0247636 125.65836985 0.04289015 121.3167774 0.05493164 116.97509766 C0.05995288 115.49885339 0.06677116 114.02261408 0.07543945 112.54638672 C0.08760189 110.42153702 0.09325046 108.29675322 0.09765625 106.171875 C0.10289307 104.8940918 0.10812988 103.61630859 0.11352539 102.29980469 C0.13091692 99.20954306 0.13091692 99.20954306 -0.49900818 97.13166809 C-1.10231347 94.56466681 -1.127189 92.23108672 -1.12939453 89.59350586 C-1.13250641 88.50442429 -1.13561829 87.41534271 -1.13882446 86.29325867 C-1.13684052 85.11238174 -1.13485657 83.93150482 -1.1328125 82.71484375 C-1.13413177 81.48171951 -1.13545105 80.24859528 -1.1368103 78.97810364 C-1.13840053 75.65076943 -1.13505835 72.32352351 -1.12857056 68.99620056 C-1.12500795 66.94208639 -1.12338379 64.88797918 -1.12231445 62.8338623 C-1.10873296 41.87682201 -0.85031894 20.94136527 0 0 Z " fill="#DBBFAA" transform="translate(544,364)"/>
<path d="M0 0 C0 0.33 0 0.66 0 1 C-30.36 1 -60.72 1 -92 1 C-92.33 1.66 -92.66 2.32 -93 3 C-93.42893555 3.51981445 -93.85787109 4.03962891 -94.29980469 4.57519531 C-96.76346125 8.08884221 -98.42036855 11.90291711 -100.203125 15.796875 C-100.6040033 16.66330627 -101.00488159 17.52973755 -101.41790771 18.42242432 C-102.26730925 20.26057557 -103.11444307 22.09977619 -103.95947266 23.93994141 C-105.22726648 26.70049891 -106.50161605 29.4579452 -107.77734375 32.21484375 C-108.60722997 34.01280898 -109.43666085 35.81098446 -110.265625 37.609375 C-110.67139771 38.48920044 -111.07717041 39.36902588 -111.49523926 40.2755127 C-113.4093658 44.44807218 -115.28386235 48.62988287 -117.06445312 52.86132812 C-117.38057556 53.60819885 -117.696698 54.35506958 -118.0223999 55.12457275 C-118.60603543 56.51382096 -119.18039397 57.90701699 -119.74371338 59.30462646 C-120.41614617 60.90559386 -121.19924919 62.45920132 -122 64 C-123.485 64.495 -123.485 64.495 -125 65 C-124.34 62.03 -123.68 59.06 -123 56 C-122.34 56 -121.68 56 -121 56 C-120.66226562 54.85144531 -120.32453125 53.70289063 -119.9765625 52.51953125 C-117.45739792 44.96055739 -113.81118703 37.86094185 -110.375 30.6875 C-109.33296802 28.50776381 -108.29252768 26.32732662 -107.25650024 24.14472961 C-106.61574034 22.79517146 -105.97151589 21.44725112 -105.32333374 20.10124207 C-103.90076394 17.1082047 -102.61966029 14.26781181 -102 11 C-101.34 11 -100.68 11 -100 11 C-99.9175 10.29875 -99.835 9.5975 -99.75 8.875 C-98.01720075 2.23260288 -98.01720075 2.23260288 -95 0 C-90.26011265 -0.96315895 -85.5011572 -0.86318505 -80.68359375 -0.83984375 C-79.22939095 -0.85367141 -77.77520968 -0.86995827 -76.32106018 -0.88856506 C-72.47282633 -0.93038041 -68.6253424 -0.93543595 -64.7769165 -0.93383789 C-61.71964556 -0.93862373 -58.66292565 -0.96939505 -55.60584068 -1.00172997 C-37.04328666 -1.19639187 -18.54451027 -0.89800813 0 0 Z " fill="#E4C8B3" transform="translate(500,512)"/>
<path d="M0 0 C0.33 0 0.66 0 1 0 C1.18175781 1.24716797 1.18175781 1.24716797 1.3671875 2.51953125 C1.53476562 3.60621094 1.70234375 4.69289063 1.875 5.8125 C2.11863281 7.43091797 2.11863281 7.43091797 2.3671875 9.08203125 C2.85132338 12.17321793 2.85132338 12.17321793 5 15 C5.44921875 17.55859375 5.44921875 17.55859375 5.6875 20.4375 C5.77386719 21.38496094 5.86023438 22.33242188 5.94921875 23.30859375 C6 26 6 26 5.50488281 27.83105469 C4.90153963 30.42297965 4.92180543 32.73409852 4.97265625 35.39453125 C4.98490234 36.43287109 4.99714844 37.47121094 5.00976562 38.54101562 C5.0447341 40.71035632 5.08375255 42.87963576 5.12695312 45.04882812 C5.18731592 50.79039527 4.96922381 55.58656514 3 61 C3.66 61.33 4.32 61.66 5 62 C4.01 64.475 4.01 64.475 3 67 C2.34 67 1.68 67 1 67 C1 68.32 1 69.64 1 71 C1.66 71.33 2.32 71.66 3 72 C1.515 72.495 1.515 72.495 0 73 C0.20625 74.03125 0.4125 75.0625 0.625 76.125 C1.0182964 80.18906285 0.49362351 82.26594122 -1 86 C-1.34976758 87.32911682 -1.69096017 88.66082739 -2 90 C-2.33 90 -2.66 90 -3 90 C-3.33 92.64 -3.66 95.28 -4 98 C-4.66 98 -5.32 98 -6 98 C-6.66 99.98 -7.32 101.96 -8 104 C-8.66 104 -9.32 104 -10 104 C-10.66 105.32 -11.32 106.64 -12 108 C-11.30988221 103.65142645 -9.80267581 99.75597543 -8.1875 95.6875 C2.22044557 68.36703228 3.9975588 38.87712107 0.4375 10.0390625 C0.03425839 6.67609044 -0.08611621 3.39082564 0 0 Z " fill="#C6A58E" transform="translate(745,337)"/>
<path d="M0 0 C0.33 0 0.66 0 1 0 C1.81559616 13.74843941 2.13748844 27.43230987 2.09765625 41.203125 C2.09578422 43.1475216 2.09436404 45.09191867 2.09336853 47.03631592 C2.08960502 52.07980725 2.07982981 57.1232684 2.06866455 62.16674805 C2.05831546 67.34293205 2.05384242 72.51912107 2.04882812 77.6953125 C2.03820002 87.79688805 2.02120075 97.89844148 2 108 C1.67 108 1.34 108 1 108 C0.67 102.06 0.34 96.12 0 90 C-0.33 90 -0.66 90 -1 90 C-1.17030479 85.41451467 -1.33051087 80.82881547 -1.48217773 76.24267578 C-1.5348787 74.68919864 -1.59013123 73.13580553 -1.64819336 71.58251953 C-1.98063403 62.63842004 -1.99831844 53.90514574 -1.23803711 44.97167969 C-0.94781316 41.34849412 -0.93700976 37.82124929 -1 34.1875 C-1.12053886 22.78151015 -0.51635485 11.39139222 0 0 Z " fill="#E0C6B2" transform="translate(544,308)"/>
<path d="M0 0 C2.0625 0.4375 2.0625 0.4375 4 1 C4 1.66 4 2.32 4 3 C-22.80651012 10.17511208 -50.36618059 11.37064735 -78 11 C-78 9.68 -78 8.36 -78 7 C-76.20841511 6.97303635 -74.41671527 6.95362083 -72.625 6.9375 C-71.62726562 6.92589844 -70.62953125 6.91429687 -69.6015625 6.90234375 C-67 7 -67 7 -65 8 C-62.29849443 8.01662063 -59.62778592 7.9727682 -56.9296875 7.87890625 C-56.13345978 7.85529526 -55.33723206 7.83168427 -54.51687622 7.80735779 C-51.96940471 7.73067789 -49.4222339 7.64667239 -46.875 7.5625 C-45.14975438 7.50928363 -43.42449402 7.4565432 -41.69921875 7.40429688 C-37.46595478 7.27505693 -33.23294618 7.13924581 -29 7 C-28.67 6.01 -28.34 5.02 -28 4 C-27.34 4.33 -26.68 4.66 -26 5 C-26 5.66 -26 6.32 -26 7 C-21.05 6.34 -16.1 5.68 -11 5 C-11 4.34 -11 3.68 -11 3 C-10.28972656 2.86722656 -9.57945312 2.73445312 -8.84765625 2.59765625 C-7.46900391 2.33275391 -7.46900391 2.33275391 -6.0625 2.0625 C-5.14597656 1.88847656 -4.22945312 1.71445312 -3.28515625 1.53515625 C-1.04710156 1.22285012 -1.04710156 1.22285012 0 0 Z " fill="#C7A58F" transform="translate(690,512)"/>
<path d="M0 0 C1.34121153 0.01931569 2.6834437 -0.00999611 4.0234375 -0.0703125 C9.32844534 -0.12849783 14.12362721 0.90366481 19.25 2.1875 C20.16950439 2.41308594 21.08900879 2.63867188 22.03637695 2.87109375 C34.49775364 6.0228251 47.38741212 10.57118848 58 18 C58 18.66 58 19.32 58 20 C59.65 20.66 61.3 21.32 63 22 C61.515 22.495 61.515 22.495 60 23 C57.49315838 21.72558889 55.14616272 20.39556516 52.75 18.9375 C32.28657144 7.0651654 10.38102685 2.82792159 -13 1 C-12.67 0.34 -12.34 -0.32 -12 -1 C-7.08077022 -2.13520687 -4.55844535 -1.84508502 0 0 Z " fill="#E1C7B2" transform="translate(646,249)"/>
<path d="M0 0 C0.66 1.32 1.32 2.64 2 4 C-2.39502254 10.72987826 -7.56575247 16.60574445 -15 20 C-15 20.66 -15 21.32 -15 22 C-14.01 21.67 -13.02 21.34 -12 21 C-12 21.66 -12 22.32 -12 23 C-5.4 23 1.2 23 8 23 C8 23.33 8 23.66 8 24 C6.96359375 24.06058594 5.9271875 24.12117187 4.859375 24.18359375 C3.48957127 24.26803371 2.11978025 24.35267997 0.75 24.4375 C0.06808594 24.47681641 -0.61382812 24.51613281 -1.31640625 24.55664062 C-4.66567579 24.7680023 -7.7556273 25.17284558 -11 26 C-11.33 25.67 -11.66 25.34 -12 25 C-13.60163916 24.90080923 -15.20779918 24.87030102 -16.8125 24.875 C-17.68519531 24.87242187 -18.55789063 24.86984375 -19.45703125 24.8671875 C-21.94920316 24.900305 -21.94920316 24.900305 -24.05859375 25.59765625 C-26.57306103 26.11876315 -27.90144695 25.54106377 -30.25 24.5625 C-31.30960937 24.13130859 -31.30960937 24.13130859 -32.390625 23.69140625 C-32.92171875 23.46324219 -33.4528125 23.23507812 -34 23 C-34 22.67 -34 22.34 -34 22 C-33.31035156 21.82984375 -32.62070312 21.6596875 -31.91015625 21.484375 C-18.72154566 18.08319696 -8.41531636 13.65872796 -1.03125 1.7578125 C-0.6909375 1.17773438 -0.350625 0.59765625 0 0 Z " fill="#BC9A82" transform="translate(492,749)"/>
<path d="M0 0 C0.33 0 0.66 0 1 0 C1.01458252 0.89082275 1.02916504 1.78164551 1.04418945 2.69946289 C1.10613989 6.08265718 1.1804384 9.4651544 1.26245117 12.84790039 C1.29520788 14.29734487 1.32338341 15.74690191 1.34643555 17.1965332 C1.61971595 33.94804048 3.56641193 51.20073836 14 65 C14.61875 65.86625 15.2375 66.7325 15.875 67.625 C18.30473281 70.34058373 20.90469595 72.10060888 24 74 C22.375 74.8125 22.375 74.8125 20 75 C15.17506683 71.71493912 12.1389643 67.89309141 9 63 C9 62.34 9 61.68 9 61 C8.34 61 7.68 61 7 61 C6.28360365 59.08960974 5.56843539 57.1787502 4.859375 55.265625 C4.3304554 53.8712006 3.7823681 52.48365764 3.203125 51.109375 C-0.28561068 42.6367312 -1.06293881 33.62589962 -1.6875 24.5625 C-1.73600098 23.88832031 -1.78450195 23.21414063 -1.83447266 22.51953125 C-2.05281178 18.8031206 -1.82804959 15.61542778 -1 12 C-0.78640412 9.898322 -0.59952167 7.7937817 -0.4375 5.6875 C-0.35371094 4.61886719 -0.26992188 3.55023437 -0.18359375 2.44921875 C-0.12300781 1.64097656 -0.06242188 0.83273437 0 0 Z " fill="#BF9C86" transform="translate(545,691)"/>
<path d="M0 0 C29.22218617 -0.32462416 57.10675175 3.36431943 85 12 C85 12.66 85 13.32 85 14 C85.99 14.495 85.99 14.495 87 15 C79.75168593 13.41132842 72.52968703 11.72427177 65.3125 10 C64.21099609 9.73960937 63.10949219 9.47921875 61.97460938 9.2109375 C60.90662109 8.95570313 59.83863281 8.70046875 58.73828125 8.4375 C57.77962158 8.20933594 56.82096191 7.98117188 55.83325195 7.74609375 C52.83879956 6.95755032 49.93629318 5.98053294 47 5 C35.82817667 2.87137115 24.48188579 2.65119528 13.1418457 2.42944336 C12.01738037 2.40116455 10.89291504 2.37288574 9.734375 2.34375 C8.72600586 2.32505859 7.71763672 2.30636719 6.67871094 2.28710938 C3.9834759 1.99822891 2.31006552 1.37696945 0 0 Z " fill="#DBC1AE" transform="translate(624,225)"/>
<path d="M0 0 C0.33 0 0.66 0 1 0 C1.974274 17.82141564 2.12137218 35.59256578 2.0625 53.4375 C2.05688324 56.12695165 2.05283892 58.81640492 2.04882812 61.50585938 C2.03796568 68.0039269 2.02135968 74.50195892 2 81 C0 79 0 79 -0.16015625 76.55859375 C-0.12792969 75.52863281 -0.09570312 74.49867188 -0.0625 73.4375 C0.02703088 68.04774127 -0.1400379 62.74807825 -0.5 57.375 C-0.88266752 51.60143115 -1.08089882 45.89128988 -0.9375 40.1015625 C-0.90485627 37.80561976 -0.90485627 37.80561976 -2 35 C-1.68160156 34.24332031 -1.36320313 33.48664062 -1.03515625 32.70703125 C0.23821463 29.37704626 -0.03522733 27.21671689 -0.4375 23.6875 C-1.16592169 15.70027146 -0.67334355 7.97653131 0 0 Z " fill="#C5A691" transform="translate(544,609)"/>
<path d="M0 0 C1.12868757 3.70081767 0.68364436 6.54874314 0.02075195 10.34912109 C-2.93461125 27.44519655 -2.27835324 44.71925967 -2 62 C-5.50286579 58.41596883 -5.43783056 54.89827336 -5.3984375 50.1484375 C-5.40130768 49.37553375 -5.40417786 48.60263 -5.40713501 47.80630493 C-5.40917602 46.16383129 -5.40364354 44.52133336 -5.39111328 42.87890625 C-5.37536485 40.4316953 -5.39079744 37.98621497 -5.41015625 35.5390625 C-5.42279395 24.42715402 -4.15133459 13.89388792 -2 3 C-1.34 3 -0.68 3 0 3 C0 2.01 0 1.02 0 0 Z " fill="#DFC3AE" transform="translate(253,605)"/>
<path d="M0 0 C0.99 0.33 1.98 0.66 3 1 C-1.30527925 6.61421031 -5.27143702 10.22678888 -12 12.75 C-18.48799328 13.56099916 -24.08948276 12.78344126 -30 10 C-31.765625 8.39453125 -31.765625 8.39453125 -33 7 C-29.535 6.505 -29.535 6.505 -26 6 C-25.01 7.485 -25.01 7.485 -24 9 C-24.33 9.33 -24.66 9.66 -25 10 C-23.783125 9.979375 -22.56625 9.95875 -21.3125 9.9375 C-18.08022678 9.93175884 -15.15065259 10.21233685 -12 11 C-12 10.01 -12 9.02 -12 8 C-11.34 8.33 -10.68 8.66 -10 9 C-9.67 8.67 -9.34 8.34 -9 8 C-8.01 7.34 -7.02 6.68 -6 6 C-4.31337542 4.35353315 -2.64488294 2.68816933 -1 1 C-0.67 0.67 -0.34 0.34 0 0 Z " fill="#C1A48E" transform="translate(307,714)"/>
<path d="M0 0 C2.70722963 0.37600412 4.98111808 0.99197518 7.5 2.0625 C10.17773183 3.06664944 12.16578026 3.16195541 15 3 C15.66 4.32 16.32 5.64 17 7 C14.03 7 11.06 7 8 7 C8 7.66 8 8.32 8 9 C7.01 8.67 6.02 8.34 5 8 C4.13375 7.7525 3.2675 7.505 2.375 7.25 C0 6 0 6 -0.875 3.4375 C-0.91625 2.633125 -0.9575 1.82875 -1 1 C-0.67 0.67 -0.34 0.34 0 0 Z " fill="#BA9378" transform="translate(569,766)"/>
<path d="M0 0 C2.19921875 0.5390625 2.19921875 0.5390625 4.6875 1.625 C5.57179688 2.00785156 6.45609375 2.39070313 7.3671875 2.78515625 C18.57013946 7.95447088 18.57013946 7.95447088 23 11 C23 11.66 23 12.32 23 13 C24.65 13.66 26.3 14.32 28 15 C27.01 15.33 26.02 15.66 25 16 C22.42792658 14.70651232 20.01921613 13.36112975 17.5625 11.875 C10.88055188 7.9591774 4.25966536 4.73612387 -3 2 C-2.01 1.34 -1.02 0.68 0 0 Z " fill="#DDC0AB" transform="translate(681,256)"/>
<path d="M0 0 C0.66 0.33 1.32 0.66 2 1 C1.67 4.63 1.34 8.26 1 12 C1.66 12.33 2.32 12.66 3 13 C3 15.83995124 2.8849447 18.2876903 2.5 21.0625 C1.93701373 24.83449702 1.93701373 24.83449702 2 28 C1.59821097 33.04373458 1.15169976 38.06414388 0 43 C-0.33 43 -0.66 43 -1 43 C-0.67 28.81 -0.34 14.62 0 0 Z " fill="#CBA78E" transform="translate(501,687)"/>
<path d="M0 0 C0.33 0 0.66 0 1 0 C2.19388403 35.68316155 2.19388403 35.68316155 2 51 C0 49 0 49 -0.16015625 46.55859375 C-0.12792969 45.52863281 -0.09570312 44.49867188 -0.0625 43.4375 C0.02703088 38.04774127 -0.1400379 32.74807825 -0.5 27.375 C-0.88266752 21.60143115 -1.08089882 15.89128988 -0.9375 10.1015625 C-0.90485627 7.80561976 -0.90485627 7.80561976 -2 5 C-1.0625 2.3125 -1.0625 2.3125 0 0 Z " fill="#BFA08B" transform="translate(544,639)"/>
<path d="M0 0 C0.33 0 0.66 0 1 0 C0.51180289 6.47083073 -1.82092009 11.60586984 -4.5625 17.4375 C-4.98724609 18.35982422 -5.41199219 19.28214844 -5.84960938 20.23242188 C-6.89167124 22.49217401 -7.94192021 24.74771507 -9 27 C-9.66 27 -10.32 27 -11 27 C-10.44462345 22.69583174 -8.78284403 19.18880141 -6.98828125 15.29296875 C-5.67533407 12.24672372 -4.81979353 9.21085799 -4 6 C-3.34 6 -2.68 6 -2 6 C-1.34 4.02 -0.68 2.04 0 0 Z " fill="#DBBEA8" transform="translate(359,610)"/>
<path d="M0 0 C0.33 0.66 0.66 1.32 1 2 C-0.21484375 4.49609375 -0.21484375 4.49609375 -1.9375 7.4375 C-4.40339027 11.45421788 -4.40339027 11.45421788 -5 16 C-6.609375 17.5703125 -6.609375 17.5703125 -8.75 19.125 C-9.79414063 19.90230469 -9.79414063 19.90230469 -10.859375 20.6953125 C-12.94594343 21.96705311 -14.61293238 22.55914517 -17 23 C-16.34 22.67 -15.68 22.34 -15 22 C-14.32410636 20.6713202 -13.65906946 19.33710496 -13 18 C-11.90251313 16.56191376 -10.775186 15.14629567 -9.625 13.75 C-7.25525991 10.77427648 -5.32437623 7.93435165 -3.6875 4.5 C-2 1 -2 1 0 0 Z " fill="#DBBEA9" transform="translate(319,654)"/>
<path d="M0 0 C2.0625 0.4375 2.0625 0.4375 4 1 C4 1.66 4 2.32 4 3 C-6.39637502 5.70607824 -16.22021417 7.65832692 -27 8 C-27 7.34 -27 6.68 -27 6 C-27.66 5.67 -28.32 5.34 -29 5 C-28.01 5 -27.02 5 -26 5 C-26 5.66 -26 6.32 -26 7 C-21.05 6.34 -16.1 5.68 -11 5 C-11 4.34 -11 3.68 -11 3 C-10.28972656 2.86722656 -9.57945312 2.73445312 -8.84765625 2.59765625 C-7.92855469 2.42105469 -7.00945313 2.24445312 -6.0625 2.0625 C-5.14597656 1.88847656 -4.22945312 1.71445312 -3.28515625 1.53515625 C-1.04710156 1.22285012 -1.04710156 1.22285012 0 0 Z " fill="#C29F88" transform="translate(690,512)"/>
<path d="M0 0 C2.98013181 2.98013181 4.40987141 6.80904012 6.16992188 10.59375 C8.79561231 16.0430765 12.00491683 21.16576366 17.3125 24.375 C18.199375 24.91125 19.08625 25.4475 20 26 C18.375 26.8125 18.375 26.8125 16 27 C11.17506683 23.71493912 8.1389643 19.89309141 5 15 C5 14.34 5 13.68 5 13 C4.34 13 3.68 13 3 13 C2.49487756 11.39743892 1.99608373 9.79288208 1.5 8.1875 C1.2215625 7.29417969 0.943125 6.40085937 0.65625 5.48046875 C0 3 0 3 0 0 Z " fill="#B8947C" transform="translate(549,739)"/>
<path d="M0 0 C-2.6940737 2.6940737 -10.74448407 1.18565147 -14.375 1.1875 C-15.633125 1.19974609 -16.89125 1.21199219 -18.1875 1.22460938 C-19.39148438 1.22654297 -20.59546875 1.22847656 -21.8359375 1.23046875 C-22.94501465 1.23457764 -24.0540918 1.23868652 -25.19677734 1.24291992 C-28 1 -28 1 -31 -1 C-26.58404696 -1.2258868 -22.16731435 -1.42767834 -17.75 -1.625 C-16.49574219 -1.68945312 -15.24148438 -1.75390625 -13.94921875 -1.8203125 C-12.74394531 -1.871875 -11.53867187 -1.9234375 -10.296875 -1.9765625 C-8.63156738 -2.05511475 -8.63156738 -2.05511475 -6.93261719 -2.13525391 C-4.01111303 -2.00051254 -2.45313506 -1.52929484 0 0 Z " fill="#CEB09A" transform="translate(583,522)"/>
<path d="M0 0 C0.33 0 0.66 0 1 0 C1.53132389 2.58157368 2.05034379 5.16461756 2.5625 7.75 C2.71396484 8.47960937 2.86542969 9.20921875 3.02148438 9.9609375 C3.74557178 13.66557073 4.09817231 16.39322322 3 20 C0.58314288 15.77050005 -0.34833144 12.87664009 0 8 C-0.66 7.67 -1.32 7.34 -2 7 C-1.34 4.69 -0.68 2.38 0 0 Z " fill="#DABDA9" transform="translate(286,652)"/>
<path d="M0 0 C0.66 0 1.32 0 2 0 C2 0.99 2 1.98 2 3 C4.64 3 7.28 3 10 3 C10 3.99 10 4.98 10 6 C6.49142603 7.16952466 4.57280503 6.76017128 1 6 C0.34 5.67 -0.32 5.34 -1 5 C-0.67 3.35 -0.34 1.7 0 0 Z " fill="#E3CAB7" transform="translate(414,490)"/>
<path d="M0 0 C0.99 0.33 1.98 0.66 3 1 C2.06725891 2.12894876 1.12859878 3.25300876 0.1875 4.375 C-0.33457031 5.00148438 -0.85664063 5.62796875 -1.39453125 6.2734375 C-3 8 -3 8 -6 10 C-6.99 10 -7.98 10 -9 10 C-8.67 9.01 -8.34 8.02 -8 7 C-7.34 6.67 -6.68 6.34 -6 6 C-4.31288577 4.3540349 -2.6454378 2.68762851 -1 1 C-0.67 0.67 -0.34 0.34 0 0 Z " fill="#CCAC96" transform="translate(307,714)"/>
<path d="M0 0 C0.8971875 0.5259375 0.8971875 0.5259375 1.8125 1.0625 C1.8125 1.7225 1.8125 2.3825 1.8125 3.0625 C-1.1575 3.0625 -4.1275 3.0625 -7.1875 3.0625 C-7.1875 3.7225 -7.1875 4.3825 -7.1875 5.0625 C-10.1875 4.0625 -10.1875 4.0625 -14.1875 2.0625 C-11.2175 2.0625 -8.2475 2.0625 -5.1875 2.0625 C-5.1875 1.4025 -5.1875 0.7425 -5.1875 0.0625 C-2.1875 -0.9375 -2.1875 -0.9375 0 0 Z " fill="#A98C76" transform="translate(584.1875,769.9375)"/>
<path d="M0 0 C0.66 0.33 1.32 0.66 2 1 C1.67 4.3 1.34 7.6 1 11 C0.34 11 -0.32 11 -1 11 C-1 13.64 -1 16.28 -1 19 C-1.33 19 -1.66 19 -2 19 C-2.22262303 12.2718373 -1.95021536 6.46008837 0 0 Z " fill="#DFC1AC" transform="translate(287,616)"/>
<path d="M0 0 C8.57142857 -0.14285714 8.57142857 -0.14285714 12 1 C12 1.66 12 2.32 12 3 C14.97 3.495 14.97 3.495 18 4 C14.12961951 5.29012683 11.84405573 4.54732624 7.875 3.6875 C6.61429688 3.42324219 5.35359375 3.15898437 4.0546875 2.88671875 C3.04664063 2.59410156 2.03859375 2.30148438 1 2 C0.67 1.34 0.34 0.68 0 0 Z " fill="#E3C7B2" transform="translate(676,230)"/>
<path d="M0 0 C1.23922223 3.71766668 0.57018942 5.43889537 -0.4375 9.1875 C-0.72496094 10.27417969 -1.01242187 11.36085938 -1.30859375 12.48046875 C-1.53675781 13.31191406 -1.76492188 14.14335938 -2 15 C-2.66 14.67 -3.32 14.34 -4 14 C-3.85904936 12.3745692 -3.71207913 10.74965949 -3.5625 9.125 C-3.48128906 8.22007812 -3.40007812 7.31515625 -3.31640625 6.3828125 C-3 4 -3 4 -2 2 C-1.34 2 -0.68 2 0 2 C0 1.34 0 0.68 0 0 Z " fill="#DBC0AC" transform="translate(292,598)"/>
<path d="M0 0 C0.66 0.99 1.32 1.98 2 3 C0.35 6.3 -1.3 9.6 -3 13 C-3.66 13 -4.32 13 -5 13 C-4.39254603 8.14036821 -2.27241033 4.2594482 0 0 Z " fill="#DCBEAA" transform="translate(366,595)"/>
<path d="M0 0 C0.33 0 0.66 0 1 0 C0.49770926 4.26947129 0.02851102 8.16836808 -2 12 C-2.99 12.33 -3.98 12.66 -5 13 C-4.54554036 11.58208592 -4.08625056 10.16571954 -3.625 8.75 C-3.24214844 7.56664062 -3.24214844 7.56664062 -2.8515625 6.359375 C-2.04826333 4.13372042 -1.10288338 2.09068328 0 0 Z " fill="#DDC1AC" transform="translate(373,579)"/>
<path d="M0 0 C2.31 0 4.62 0 7 0 C6.01 1.485 6.01 1.485 5 3 C6.32 4.32 7.64 5.64 9 7 C5.09161134 7 3.88405893 5.49432124 1 3 C1.33 2.67 1.66 2.34 2 2 C1.34 1.34 0.68 0.68 0 0 Z " fill="#E5CFBD" transform="translate(473,228)"/>
<path d="M0 0 C2.64 0 5.28 0 8 0 C8 0.99 8 1.98 8 3 C5.03 3 2.06 3 -1 3 C-0.67 2.01 -0.34 1.02 0 0 Z " fill="#BA957D" transform="translate(504,770)"/>
<path d="M0 0 C0.66 0.99 1.32 1.98 2 3 C-0.64 3 -3.28 3 -6 3 C-6.33 2.34 -6.66 1.68 -7 1 C-4.46578263 -0.26710868 -2.80561762 -0.28056176 0 0 Z " fill="#CAAA94" transform="translate(281,720)"/>
<path d="M0 0 C0.33 0 0.66 0 1 0 C1 1.65 1 3.3 1 5 C0.34 5 -0.32 5 -1 5 C-1 8.3 -1 11.6 -1 15 C-1.33 15 -1.66 15 -2 15 C-2.05406122 13.06280622 -2.09282025 11.12518079 -2.125 9.1875 C-2.14820313 8.10855469 -2.17140625 7.02960937 -2.1953125 5.91796875 C-2 3 -2 3 0 0 Z " fill="#DEC0AB" transform="translate(286,636)"/>
<path d="M0 0 C0.66 0.99 1.32 1.98 2 3 C1.34 4.32 0.68 5.64 0 7 C-0.66 7 -1.32 7 -2 7 C-2.66 8.32 -3.32 9.64 -4 11 C-3.39301257 6.87248551 -1.96189209 3.6678852 0 0 Z " fill="#E5CEBC" transform="translate(475,312)"/>
<path d="M0 0 C2 1.5 2 1.5 4 4 C4.35800135 6.75871627 4.18660165 9.20097524 4 12 C0 4.28571429 0 4.28571429 0 0 Z " fill="#D0B099" transform="translate(738,313)"/>
<path d="M0 0 C1.32 0.33 2.64 0.66 4 1 C4.33 3.31 4.66 5.62 5 8 C2.20127563 5.47211993 0.54226981 3.79588866 0 0 Z " fill="#CAAD97" transform="translate(262,706)"/>
<path d="M0 0 C0 3.20395416 -0.74335022 5.09399739 -2 8 C-2.99 8 -3.98 8 -5 8 C-3.62845496 5.04590299 -2.01136276 2.55991624 0 0 Z " fill="#DCC4B1" transform="translate(277,554)"/>
<path d="M0 0 C0.99 0.33 1.98 0.66 3 1 C0.64031256 3.09749995 -0.54616994 3.96905704 -3.75 4.1875 C-4.86375 4.0946875 -4.86375 4.0946875 -6 4 C-4.03617993 2.49440461 -2.21736634 1.10868317 0 0 Z " fill="#E8CDB7" transform="translate(355,523)"/>
<path d="M0 0 C0.66 0 1.32 0 2 0 C2 0.66 2 1.32 2 2 C1.34 2 0.68 2 0 2 C0 1.34 0 0.68 0 0 Z " fill="#A48977" transform="translate(580,774)"/>
<path d="M0 0 C4 1 4 1 4 1 Z " fill="#B4947C" transform="translate(529,774)"/>
<path d="M0 0 C4 1 4 1 4 1 Z " fill="#B5947D" transform="translate(515,774)"/>
<path d="M0 0 C4 1 4 1 4 1 Z " fill="#B29781" transform="translate(463,768)"/>
<path d="M0 0 C4 1 4 1 4 1 Z " fill="#C0A18B" transform="translate(683,518)"/>
<path d="M0 0 C0 3 0 3 0 3 Z " fill="#DDC3AC" transform="translate(497,517)"/>
<path d="M0 0 C1 4 1 4 1 4 Z " fill="#B49882" transform="translate(796,411)"/>
<path d="M0 0 C1 4 1 4 1 4 Z " fill="#CAAC97" transform="translate(745,354)"/>
<path d="M0 0 C3 1 3 1 3 1 Z " fill="#AE8F78" transform="translate(564,774)"/>
<path d="M0 0 C3 1 3 1 3 1 Z " fill="#AF917A" transform="translate(560,774)"/>
<path d="M0 0 C3 1 3 1 3 1 Z " fill="#B6967F" transform="translate(506,774)"/>
<path d="M0 0 C3 1 3 1 3 1 Z " fill="#B39680" transform="translate(476,774)"/>
<path d="M0 0 C3 1 3 1 3 1 Z " fill="#AF9480" transform="translate(470,774)"/>
<path d="" fill="#DBC3B0" transform="translate(0,0)"/>
<path d="M0 0 C3 1 3 1 3 1 Z " fill="#CBAD97" transform="translate(641,496)"/>
<path d="M0 0 C3 1 3 1 3 1 Z " fill="#E0CAB8" transform="translate(369,496)"/>
<path d="M0 0 C0.66 0.66 1.32 1.32 2 2 C1.34 2 0.68 2 0 2 C0 1.34 0 0.68 0 0 Z " fill="#E4CDBA" transform="translate(437,446)"/>
<path d="M0 0 C0.66 0 1.32 0 2 0 C1.67 0.66 1.34 1.32 1 2 C0.67 1.34 0.34 0.68 0 0 Z " fill="#CDAF98" transform="translate(739,326)"/>
<path d="M0 0 C0.66 0.66 1.32 1.32 2 2 C1.34 2 0.68 2 0 2 C0 1.34 0 0.68 0 0 Z " fill="#D1B39E" transform="translate(729,300)"/>
<path d="M0 0 C3 1 3 1 3 1 Z " fill="#DEC7B2" transform="translate(658,254)"/>
<path d="M0 0 C0.99 0.495 0.99 0.495 2 1 C1.01 1.495 1.01 1.495 0 2 C0 1.34 0 0.68 0 0 Z " fill="#D2C2B2" transform="translate(464,230)"/>
<path d="M0 0 C2 1 2 1 2 1 Z " fill="#B1917A" transform="translate(550,774)"/>
<path d="M0 0 C2 1 2 1 2 1 Z " fill="#B2917C" transform="translate(547,774)"/>
<path d="M0 0 C2 1 2 1 2 1 Z " fill="#B2917C" transform="translate(541,774)"/>
<path d="M0 0 C2 1 2 1 2 1 Z " fill="#B4957D" transform="translate(524,774)"/>
<path d="" fill="#C3A28B" transform="translate(0,0)"/>
<path d="M0 0 C2 1 2 1 2 1 Z " fill="#BEA793" transform="translate(277,726)"/>
<path d="" fill="#D7BDAA" transform="translate(0,0)"/>
<path d="" fill="#DDC3B1" transform="translate(0,0)"/>
<path d="M0 0 C2 1 2 1 2 1 Z " fill="#C9AA92" transform="translate(681,488)"/>
<path d="" fill="#B59883" transform="translate(0,0)"/>
<path d="" fill="#C4A790" transform="translate(0,0)"/>
<path d="" fill="#C9AB94" transform="translate(0,0)"/>
<path d="" fill="#E6D0BD" transform="translate(0,0)"/>
<path d="" fill="#BA9D8A" transform="translate(0,0)"/>
<path d="" fill="#CEB29C" transform="translate(0,0)"/>
<path d="" fill="#D1B5A0" transform="translate(0,0)"/>
<path d="M0 0 C2 1 2 1 2 1 Z " fill="#DFC4B1" transform="translate(664,255)"/>
<path d="" fill="#E8D3C2" transform="translate(0,0)"/>
<path d="M0 0 C2 1 2 1 2 1 Z " fill="#DEC7B4" transform="translate(644,252)"/>
<path d="M0 0 C2 1 2 1 2 1 Z " fill="#E0C9B5" transform="translate(634,251)"/>
<path d="M0 0 C2 1 2 1 2 1 Z " fill="#E1C8B5" transform="translate(631,251)"/>
<path d="M0 0 C2 1 2 1 2 1 Z " fill="#DCC4B4" transform="translate(645,224)"/>
<path d="" fill="#525451" transform="translate(0,0)"/>
<path d="" fill="#585957" transform="translate(0,0)"/>
<path d="" fill="#5A5B59" transform="translate(0,0)"/>
<path d="" fill="#5B5A59" transform="translate(0,0)"/>
<path d="" fill="#545552" transform="translate(0,0)"/>
<path d="" fill="#555454" transform="translate(0,0)"/>
<path d="" fill="#5D5A58" transform="translate(0,0)"/>
<path d="" fill="#575756" transform="translate(0,0)"/>
<path d="" fill="#5C5A57" transform="translate(0,0)"/>
<path d="" fill="#585758" transform="translate(0,0)"/>
<path d="" fill="#585858" transform="translate(0,0)"/>
<path d="" fill="#605E5C" transform="translate(0,0)"/>
<path d="" fill="#5F5E5B" transform="translate(0,0)"/>
<path d="" fill="#5F5E5C" transform="translate(0,0)"/>
<path d="" fill="#4C504E" transform="translate(0,0)"/>
<path d="" fill="#4C4E4C" transform="translate(0,0)"/>
<path d="" fill="#515150" transform="translate(0,0)"/>
<path d="" fill="#5B5B57" transform="translate(0,0)"/>
<path d="" fill="#605D58" transform="translate(0,0)"/>
<path d="" fill="#605E5B" transform="translate(0,0)"/>
<path d="" fill="#555958" transform="translate(0,0)"/>
<path d="" fill="#535553" transform="translate(0,0)"/>
<path d="" fill="#5A5756" transform="translate(0,0)"/>
<path d="" fill="#555655" transform="translate(0,0)"/>
<path d="" fill="#4E504E" transform="translate(0,0)"/>
<path d="" fill="#4D504F" transform="translate(0,0)"/>
<path d="" fill="#535451" transform="translate(0,0)"/>
<path d="" fill="#565753" transform="translate(0,0)"/>
<path d="" fill="#595956" transform="translate(0,0)"/>
<path d="" fill="#62615D" transform="translate(0,0)"/>
<path d="" fill="#4C504D" transform="translate(0,0)"/>
<path d="" fill="#505250" transform="translate(0,0)"/>
<path d="" fill="#575755" transform="translate(0,0)"/>
<path d="" fill="#5C5C57" transform="translate(0,0)"/>
<path d="" fill="#5D5D58" transform="translate(0,0)"/>
<path d="" fill="#535554" transform="translate(0,0)"/>
<path d="" fill="#4E4F4E" transform="translate(0,0)"/>
<path d="" fill="#515452" transform="translate(0,0)"/>
<path d="" fill="#4F514F" transform="translate(0,0)"/>
<path d="" fill="#4C4E4D" transform="translate(0,0)"/>
<path d="" fill="#4E514E" transform="translate(0,0)"/>
<path d="" fill="#515250" transform="translate(0,0)"/>
<path d="" fill="#525352" transform="translate(0,0)"/>
<path d="" fill="#585857" transform="translate(0,0)"/>
<path d="" fill="#5C5A57" transform="translate(0,0)"/>
<path d="" fill="#605D59" transform="translate(0,0)"/>
<path d="" fill="#63625D" transform="translate(0,0)"/>
<path d="" fill="#64615E" transform="translate(0,0)"/>
<path d="" fill="#555553" transform="translate(0,0)"/>
<path d="" fill="#66635F" transform="translate(0,0)"/>
<path d="" fill="#61625F" transform="translate(0,0)"/>
<path d="" fill="#545353" transform="translate(0,0)"/>
<path d="" fill="#5E5E5B" transform="translate(0,0)"/>
<path d="" fill="#64625E" transform="translate(0,0)"/>
<path d="" fill="#5D5E5C" transform="translate(0,0)"/>
<path d="" fill="#4D504E" transform="translate(0,0)"/>
<path d="" fill="#4D504E" transform="translate(0,0)"/>
<path d="" fill="#4F4F50" transform="translate(0,0)"/>
<path d="" fill="#515251" transform="translate(0,0)"/>
<path d="" fill="#515450" transform="translate(0,0)"/>
<path d="" fill="#545452" transform="translate(0,0)"/>
<path d="" fill="#595656" transform="translate(0,0)"/>
<path d="" fill="#595956" transform="translate(0,0)"/>
<path d="" fill="#595957" transform="translate(0,0)"/>
<path d="" fill="#595957" transform="translate(0,0)"/>
<path d="" fill="#625F5A" transform="translate(0,0)"/>
<path d="" fill="#625F5C" transform="translate(0,0)"/>
<path d="" fill="#626059" transform="translate(0,0)"/>
<path d="" fill="#666562" transform="translate(0,0)"/>
<path d="" fill="#60615E" transform="translate(0,0)"/>
<path d="" fill="#5D5D5C" transform="translate(0,0)"/>
<path d="" fill="#4E4F4E" transform="translate(0,0)"/>
<path d="" fill="#4F514F" transform="translate(0,0)"/>
<path d="" fill="#4F524F" transform="translate(0,0)"/>
<path d="" fill="#505250" transform="translate(0,0)"/>
<path d="" fill="#525352" transform="translate(0,0)"/>
<path d="" fill="#535251" transform="translate(0,0)"/>
<path d="" fill="#535452" transform="translate(0,0)"/>
<path d="" fill="#565654" transform="translate(0,0)"/>
<path d="" fill="#585756" transform="translate(0,0)"/>
<path d="" fill="#5B5B57" transform="translate(0,0)"/>
<path d="" fill="#6A6664" transform="translate(0,0)"/>
<path d="" fill="#686862" transform="translate(0,0)"/>
<path d="" fill="#646561" transform="translate(0,0)"/>
<path d="" fill="#636260" transform="translate(0,0)"/>
<path d="" fill="#595C59" transform="translate(0,0)"/>
<path d="" fill="#575857" transform="translate(0,0)"/>
<path d="" fill="#565956" transform="translate(0,0)"/>
<path d="" fill="#505251" transform="translate(0,0)"/>
<path d="" fill="#545453" transform="translate(0,0)"/>
<path d="" fill="#525251" transform="translate(0,0)"/>
<path d="" fill="#545655" transform="translate(0,0)"/>
<path d="" fill="#66635D" transform="translate(0,0)"/>
<path d="" fill="#6D6864" transform="translate(0,0)"/>
<path d="" fill="#62615E" transform="translate(0,0)"/>
<path d="" fill="#605F5D" transform="translate(0,0)"/>
<path d="" fill="#64625C" transform="translate(0,0)"/>
<path d="" fill="#676562" transform="translate(0,0)"/>
<path d="" fill="#5D5D5A" transform="translate(0,0)"/>
<path d="" fill="#575956" transform="translate(0,0)"/>
<path d="" fill="#5B5C59" transform="translate(0,0)"/>
<path d="" fill="#746D68" transform="translate(0,0)"/>
<path d="" fill="#5B5C59" transform="translate(0,0)"/>
<path d="" fill="#525553" transform="translate(0,0)"/>
<path d="" fill="#545553" transform="translate(0,0)"/>
<path d="" fill="#5B5C59" transform="translate(0,0)"/>
<path d="" fill="#62635D" transform="translate(0,0)"/>
<path d="" fill="#656461" transform="translate(0,0)"/>
<path d="" fill="#505151" transform="translate(0,0)"/>
<path d="" fill="#505151" transform="translate(0,0)"/>
<path d="" fill="#505252" transform="translate(0,0)"/>
<path d="" fill="#505152" transform="translate(0,0)"/>
<path d="" fill="#515550" transform="translate(0,0)"/>
<path d="" fill="#585A56" transform="translate(0,0)"/>
<path d="" fill="#60615C" transform="translate(0,0)"/>
<path d="" fill="#78716A" transform="translate(0,0)"/>
<path d="" fill="#5E615F" transform="translate(0,0)"/>
<path d="" fill="#5D5D5D" transform="translate(0,0)"/>
<path d="" fill="#545654" transform="translate(0,0)"/>
<path d="" fill="#555655" transform="translate(0,0)"/>
<path d="" fill="#565857" transform="translate(0,0)"/>
<path d="" fill="#7A7269" transform="translate(0,0)"/>
<path d="" fill="#515251" transform="translate(0,0)"/>
<path d="" fill="#555654" transform="translate(0,0)"/>
<path d="" fill="#736E6A" transform="translate(0,0)"/>
<path d="" fill="#716D69" transform="translate(0,0)"/>
<path d="" fill="#726B65" transform="translate(0,0)"/>
<path d="" fill="#595B58" transform="translate(0,0)"/>
<path d="" fill="#696662" transform="translate(0,0)"/>
<path d="" fill="#706C64" transform="translate(0,0)"/>
<path d="" fill="#686966" transform="translate(0,0)"/>
<path d="" fill="#515453" transform="translate(0,0)"/>
<path d="" fill="#62605E" transform="translate(0,0)"/>
<path d="" fill="#6E6864" transform="translate(0,0)"/>
<path d="" fill="#726C64" transform="translate(0,0)"/>
<path d="" fill="#555755" transform="translate(0,0)"/>
<path d="" fill="#61605D" transform="translate(0,0)"/>
<path d="" fill="#66635F" transform="translate(0,0)"/>
<path d="" fill="#787067" transform="translate(0,0)"/>
<path d="" fill="#5D5F5E" transform="translate(0,0)"/>
<path d="" fill="#525353" transform="translate(0,0)"/>
<path d="" fill="#555856" transform="translate(0,0)"/>
<path d="" fill="#8B7E73" transform="translate(0,0)"/>
<path d="" fill="#8C7F74" transform="translate(0,0)"/>
<path d="" fill="#706C66" transform="translate(0,0)"/>
<path d="" fill="#5C5C5B" transform="translate(0,0)"/>
<path d="" fill="#6A6861" transform="translate(0,0)"/>
<path d="" fill="#6B6763" transform="translate(0,0)"/>
<path d="" fill="#8A7D6F" transform="translate(0,0)"/>
<path d="" fill="#5A5B5B" transform="translate(0,0)"/>
<path d="" fill="#5B5D5B" transform="translate(0,0)"/>
<path d="" fill="#535552" transform="translate(0,0)"/>
<path d="" fill="#686662" transform="translate(0,0)"/>
<path d="" fill="#585855" transform="translate(0,0)"/>
<path d="" fill="#555653" transform="translate(0,0)"/>
<path d="" fill="#5B5C59" transform="translate(0,0)"/>
<path d="" fill="#8C857C" transform="translate(0,0)"/>
<path d="" fill="#AD9281" transform="translate(0,0)"/>
<path d="" fill="#585956" transform="translate(0,0)"/>
<path d="" fill="#B2927D" transform="translate(0,0)"/>
<path d="" fill="#B5947D" transform="translate(0,0)"/>
<path d="" fill="#B5957F" transform="translate(0,0)"/>
<path d="" fill="#B8967F" transform="translate(0,0)"/>
<path d="" fill="#B4987F" transform="translate(0,0)"/>
<path d="" fill="#B59580" transform="translate(0,0)"/>
<path d="" fill="#B59981" transform="translate(0,0)"/>
<path d="" fill="#AD9583" transform="translate(0,0)"/>
<path d="" fill="#76736F" transform="translate(0,0)"/>
<path d="" fill="#5C5D5C" transform="translate(0,0)"/>
<path d="" fill="#AB8B79" transform="translate(0,0)"/>
<path d="" fill="#AD9582" transform="translate(0,0)"/>
<path d="" fill="#AA8F7A" transform="translate(0,0)"/>
<path d="" fill="#5A5A58" transform="translate(0,0)"/>
<path d="" fill="#B79C87" transform="translate(0,0)"/>
<path d="" fill="#AC917B" transform="translate(0,0)"/>
<path d="" fill="#5C5C59" transform="translate(0,0)"/>
<path d="" fill="#61605D" transform="translate(0,0)"/>
<path d="" fill="#9F9185" transform="translate(0,0)"/>
<path d="" fill="#605F5E" transform="translate(0,0)"/>
<path d="" fill="#BC9D87" transform="translate(0,0)"/>
<path d="" fill="#BA9D89" transform="translate(0,0)"/>
<path d="" fill="#746F6A" transform="translate(0,0)"/>
<path d="" fill="#73746F" transform="translate(0,0)"/>
<path d="" fill="#5A5D59" transform="translate(0,0)"/>
<path d="" fill="#696869" transform="translate(0,0)"/>
<path d="" fill="#77716A" transform="translate(0,0)"/>
<path d="" fill="#C0A18A" transform="translate(0,0)"/>
<path d="" fill="#5B5E5A" transform="translate(0,0)"/>
<path d="" fill="#63625F" transform="translate(0,0)"/>
<path d="" fill="#C1A997" transform="translate(0,0)"/>
<path d="" fill="#C0AA96" transform="translate(0,0)"/>
<path d="" fill="#C0A997" transform="translate(0,0)"/>
<path d="" fill="#C0A896" transform="translate(0,0)"/>
<path d="" fill="#5D5D5D" transform="translate(0,0)"/>
<path d="" fill="#60605E" transform="translate(0,0)"/>
<path d="" fill="#696662" transform="translate(0,0)"/>
<path d="" fill="#BFA998" transform="translate(0,0)"/>
<path d="" fill="#646562" transform="translate(0,0)"/>
<path d="" fill="#BC9E87" transform="translate(0,0)"/>
<path d="" fill="#C4AC9A" transform="translate(0,0)"/>
<path d="" fill="#C1A38B" transform="translate(0,0)"/>
<path d="" fill="#5E605D" transform="translate(0,0)"/>
<path d="" fill="#88837E" transform="translate(0,0)"/>
<path d="" fill="#5F605E" transform="translate(0,0)"/>
<path d="" fill="#6C6A65" transform="translate(0,0)"/>
<path d="" fill="#6E6B66" transform="translate(0,0)"/>
<path d="" fill="#C6B19C" transform="translate(0,0)"/>
<path d="" fill="#C7AE9B" transform="translate(0,0)"/>
<path d="" fill="#C3AE9B" transform="translate(0,0)"/>
<path d="" fill="#93867A" transform="translate(0,0)"/>
<path d="" fill="#C9B09D" transform="translate(0,0)"/>
<path d="" fill="#CCB3A1" transform="translate(0,0)"/>
<path d="" fill="#CCB09D" transform="translate(0,0)"/>
<path d="" fill="#CAB49F" transform="translate(0,0)"/>
<path d="" fill="#C9B2A0" transform="translate(0,0)"/>
<path d="" fill="#CAB19F" transform="translate(0,0)"/>
<path d="" fill="#5F5E5D" transform="translate(0,0)"/>
<path d="" fill="#D8BDA8" transform="translate(0,0)"/>
<path d="" fill="#D5BAA6" transform="translate(0,0)"/>
<path d="" fill="#5C5B5A" transform="translate(0,0)"/>
<path d="" fill="#D7BCA7" transform="translate(0,0)"/>
<path d="" fill="#D6BFAA" transform="translate(0,0)"/>
<path d="" fill="#696762" transform="translate(0,0)"/>
<path d="" fill="#D6BFAA" transform="translate(0,0)"/>
<path d="" fill="#60605F" transform="translate(0,0)"/>
<path d="" fill="#6C6C6A" transform="translate(0,0)"/>
<path d="" fill="#5C5D5D" transform="translate(0,0)"/>
<path d="" fill="#D4B8A6" transform="translate(0,0)"/>
<path d="" fill="#5F615C" transform="translate(0,0)"/>
<path d="" fill="#9B8B7E" transform="translate(0,0)"/>
<path d="" fill="#B7A08D" transform="translate(0,0)"/>
<path d="" fill="#D9C0AC" transform="translate(0,0)"/>
<path d="" fill="#5E5E5C" transform="translate(0,0)"/>
<path d="" fill="#62605F" transform="translate(0,0)"/>
<path d="" fill="#666561" transform="translate(0,0)"/>
<path d="" fill="#807970" transform="translate(0,0)"/>
<path d="" fill="#D2BBA6" transform="translate(0,0)"/>
<path d="" fill="#DDC2AE" transform="translate(0,0)"/>
<path d="" fill="#D8BDA8" transform="translate(0,0)"/>
<path d="" fill="#5C5C5B" transform="translate(0,0)"/>
<path d="" fill="#5D5D5C" transform="translate(0,0)"/>
<path d="" fill="#6B6A63" transform="translate(0,0)"/>
<path d="" fill="#76726B" transform="translate(0,0)"/>
<path d="" fill="#B59F8C" transform="translate(0,0)"/>
<path d="" fill="#6B6C6A" transform="translate(0,0)"/>
<path d="" fill="#5E5F5D" transform="translate(0,0)"/>
<path d="" fill="#61625D" transform="translate(0,0)"/>
<path d="" fill="#A59C94" transform="translate(0,0)"/>
<path d="" fill="#D9C0B0" transform="translate(0,0)"/>
<path d="" fill="#DDC4B2" transform="translate(0,0)"/>
<path d="" fill="#5E5D5B" transform="translate(0,0)"/>
<path d="" fill="#D8C3AC" transform="translate(0,0)"/>
<path d="" fill="#DAC2AF" transform="translate(0,0)"/>
<path d="" fill="#DBC3AF" transform="translate(0,0)"/>
<path d="" fill="#5E5F5D" transform="translate(0,0)"/>
<path d="" fill="#61625E" transform="translate(0,0)"/>
<path d="" fill="#DAC2AE" transform="translate(0,0)"/>
<path d="" fill="#D6C1B0" transform="translate(0,0)"/>
<path d="" fill="#60615D" transform="translate(0,0)"/>
<path d="" fill="#747069" transform="translate(0,0)"/>
<path d="" fill="#DFC9B5" transform="translate(0,0)"/>
<path d="" fill="#626460" transform="translate(0,0)"/>
<path d="" fill="#726F68" transform="translate(0,0)"/>
<path d="" fill="#7A756F" transform="translate(0,0)"/>
<path d="" fill="#DCC3AF" transform="translate(0,0)"/>
<path d="" fill="#DCC5B0" transform="translate(0,0)"/>
<path d="" fill="#DDC7B5" transform="translate(0,0)"/>
<path d="" fill="#DEC6B4" transform="translate(0,0)"/>
<path d="" fill="#DDC7B3" transform="translate(0,0)"/>
<path d="" fill="#DCC5B2" transform="translate(0,0)"/>
<path d="" fill="#DEC8B3" transform="translate(0,0)"/>
<path d="" fill="#DCC4B0" transform="translate(0,0)"/>
<path d="" fill="#DDC5B2" transform="translate(0,0)"/>
<path d="" fill="#6E6A65" transform="translate(0,0)"/>
<path d="" fill="#8F8377" transform="translate(0,0)"/>
<path d="" fill="#DDC9B3" transform="translate(0,0)"/>
<path d="" fill="#E2C8B4" transform="translate(0,0)"/>
<path d="" fill="#E5C8B6" transform="translate(0,0)"/>
<path d="" fill="#62615E" transform="translate(0,0)"/>
<path d="" fill="#79726D" transform="translate(0,0)"/>
<path d="" fill="#92877A" transform="translate(0,0)"/>
<path d="" fill="#646561" transform="translate(0,0)"/>
<path d="" fill="#726E6A" transform="translate(0,0)"/>
<path d="" fill="#C8AD97" transform="translate(0,0)"/>
<path d="" fill="#DCC4AF" transform="translate(0,0)"/>
<path d="" fill="#E3C8B6" transform="translate(0,0)"/>
<path d="" fill="#E2CAB6" transform="translate(0,0)"/>
<path d="" fill="#C2A38D" transform="translate(0,0)"/>
<path d="" fill="#DFC9B6" transform="translate(0,0)"/>
<path d="" fill="#C8AA95" transform="translate(0,0)"/>
<path d="" fill="#C9AC96" transform="translate(0,0)"/>
<path d="" fill="#E1CAB6" transform="translate(0,0)"/>
<path d="" fill="#C2A38D" transform="translate(0,0)"/>
<path d="" fill="#C1A48D" transform="translate(0,0)"/>
<path d="" fill="#C3A690" transform="translate(0,0)"/>
<path d="" fill="#E4CDB7" transform="translate(0,0)"/>
<path d="" fill="#E2CBB8" transform="translate(0,0)"/>
<path d="" fill="#DCC6B7" transform="translate(0,0)"/>
<path d="" fill="#E3CAB7" transform="translate(0,0)"/>
<path d="" fill="#BB9E88" transform="translate(0,0)"/>
<path d="" fill="#C3A48C" transform="translate(0,0)"/>
<path d="" fill="#E2C8B5" transform="translate(0,0)"/>
<path d="" fill="#E0CAB4" transform="translate(0,0)"/>
<path d="" fill="#64635E" transform="translate(0,0)"/>
<path d="" fill="#BDA08A" transform="translate(0,0)"/>
<path d="" fill="#BEA08B" transform="translate(0,0)"/>
<path d="" fill="#E2CAB6" transform="translate(0,0)"/>
<path d="" fill="#E4CDB9" transform="translate(0,0)"/>
<path d="" fill="#DEC3AC" transform="translate(0,0)"/>
<path d="" fill="#DDC7B7" transform="translate(0,0)"/>
<path d="" fill="#BAA08A" transform="translate(0,0)"/>
<path d="" fill="#B99D87" transform="translate(0,0)"/>
<path d="" fill="#DBC9B9" transform="translate(0,0)"/>
<path d="" fill="#DEC5B3" transform="translate(0,0)"/>
<path d="" fill="#BA9E84" transform="translate(0,0)"/>
<path d="" fill="#646462" transform="translate(0,0)"/>
<path d="" fill="#6C6C6A" transform="translate(0,0)"/>
<path d="" fill="#B69A84" transform="translate(0,0)"/>
<path d="" fill="#CDAC97" transform="translate(0,0)"/>
<path d="" fill="#908578" transform="translate(0,0)"/>
<path d="" fill="#E6CDB8" transform="translate(0,0)"/>
<path d="" fill="#696C6A" transform="translate(0,0)"/>
<path d="" fill="#E7D0BB" transform="translate(0,0)"/>
<path d="" fill="#E5CEBC" transform="translate(0,0)"/>
<path d="" fill="#E4CDBA" transform="translate(0,0)"/>
<path d="" fill="#78736D" transform="translate(0,0)"/>
<path d="" fill="#DDC9B9" transform="translate(0,0)"/>
<path d="" fill="#847B72" transform="translate(0,0)"/>
<path d="" fill="#B7AEA4" transform="translate(0,0)"/>
<path d="" fill="#E2CCBB" transform="translate(0,0)"/>
<path d="" fill="#DFCBBD" transform="translate(0,0)"/>
<path d="" fill="#E4CDBB" transform="translate(0,0)"/>
<path d="" fill="#E0CBBA" transform="translate(0,0)"/>
<path d="" fill="#E3CCBB" transform="translate(0,0)"/>
<path d="" fill="#E4CEBB" transform="translate(0,0)"/>
<path d="" fill="#6F6C68" transform="translate(0,0)"/>
<path d="" fill="#79746D" transform="translate(0,0)"/>
<path d="" fill="#70716E" transform="translate(0,0)"/>
<path d="" fill="#666562" transform="translate(0,0)"/>
<path d="" fill="#C4AD99" transform="translate(0,0)"/>
<path d="" fill="#6E716F" transform="translate(0,0)"/>
<path d="" fill="#B39782" transform="translate(0,0)"/>
<path d="" fill="#E2CCBA" transform="translate(0,0)"/>
<path d="" fill="#DECBBA" transform="translate(0,0)"/>
<path d="" fill="#B59580" transform="translate(0,0)"/>
<path d="" fill="#B69983" transform="translate(0,0)"/>
<path d="" fill="#E0CAB9" transform="translate(0,0)"/>
<path d="" fill="#B39A83" transform="translate(0,0)"/>
<path d="" fill="#C5A591" transform="translate(0,0)"/>
<path d="" fill="#E3CCBB" transform="translate(0,0)"/>
<path d="" fill="#636361" transform="translate(0,0)"/>
<path d="" fill="#676661" transform="translate(0,0)"/>
<path d="" fill="#BEA893" transform="translate(0,0)"/>
<path d="" fill="#80817E" transform="translate(0,0)"/>
<path d="" fill="#BFA996" transform="translate(0,0)"/>
<path d="" fill="#E5CDB8" transform="translate(0,0)"/>
<path d="" fill="#E0CEBC" transform="translate(0,0)"/>
<path d="" fill="#DDC9BC" transform="translate(0,0)"/>
<path d="" fill="#B69A84" transform="translate(0,0)"/>
<path d="" fill="#E2CAB8" transform="translate(0,0)"/>
<path d="" fill="#7E7E7A" transform="translate(0,0)"/>
<path d="" fill="#BFA895" transform="translate(0,0)"/>
<path d="" fill="#B59884" transform="translate(0,0)"/>
<path d="" fill="#C4A591" transform="translate(0,0)"/>
<path d="" fill="#6C6D6D" transform="translate(0,0)"/>
<path d="" fill="#C7A793" transform="translate(0,0)"/>
<path d="" fill="#7C7670" transform="translate(0,0)"/>
<path d="" fill="#8A8178" transform="translate(0,0)"/>
<path d="" fill="#656867" transform="translate(0,0)"/>
<path d="" fill="#E6CFBC" transform="translate(0,0)"/>
<path d="" fill="#C7A891" transform="translate(0,0)"/>
<path d="" fill="#B09987" transform="translate(0,0)"/>
<path d="" fill="#70706E" transform="translate(0,0)"/>
<path d="" fill="#676968" transform="translate(0,0)"/>
<path d="" fill="#E4CEBC" transform="translate(0,0)"/>
<path d="" fill="#E6CFBD" transform="translate(0,0)"/>
<path d="" fill="#E5CEBE" transform="translate(0,0)"/>
<path d="" fill="#636461" transform="translate(0,0)"/>
<path d="" fill="#76736D" transform="translate(0,0)"/>
<path d="" fill="#847D76" transform="translate(0,0)"/>
<path d="" fill="#787775" transform="translate(0,0)"/>
<path d="" fill="#717372" transform="translate(0,0)"/>
<path d="" fill="#6F716D" transform="translate(0,0)"/>
<path d="" fill="#E1CCBE" transform="translate(0,0)"/>
<path d="" fill="#B79D89" transform="translate(0,0)"/>
<path d="" fill="#6A6A65" transform="translate(0,0)"/>
<path d="" fill="#8B8A86" transform="translate(0,0)"/>
<path d="" fill="#E7D0BC" transform="translate(0,0)"/>
<path d="" fill="#E8D1BF" transform="translate(0,0)"/>
<path d="" fill="#676762" transform="translate(0,0)"/>
<path d="" fill="#E8D3C1" transform="translate(0,0)"/>
<path d="" fill="#BCA18E" transform="translate(0,0)"/>
<path d="" fill="#CBAD99" transform="translate(0,0)"/>
<path d="" fill="#CEAF99" transform="translate(0,0)"/>
<path d="" fill="#BCA18D" transform="translate(0,0)"/>
<path d="" fill="#CDAF9A" transform="translate(0,0)"/>
<path d="" fill="#CBAF99" transform="translate(0,0)"/>
<path d="" fill="#EAD1BD" transform="translate(0,0)"/>
<path d="" fill="#656360" transform="translate(0,0)"/>
<path d="" fill="#6F6D68" transform="translate(0,0)"/>
<path d="" fill="#706E69" transform="translate(0,0)"/>
<path d="" fill="#626464" transform="translate(0,0)"/>
<path d="" fill="#D1B39C" transform="translate(0,0)"/>
<path d="" fill="#646461" transform="translate(0,0)"/>
<path d="" fill="#666761" transform="translate(0,0)"/>
<path d="" fill="#696B69" transform="translate(0,0)"/>
<path d="" fill="#E4D2BF" transform="translate(0,0)"/>
<path d="" fill="#D0B5A0" transform="translate(0,0)"/>
<path d="" fill="#D1B6A0" transform="translate(0,0)"/>
<path d="" fill="#D1B5A1" transform="translate(0,0)"/>
<path d="" fill="#666868" transform="translate(0,0)"/>
<path d="" fill="#D5BBA4" transform="translate(0,0)"/>
<path d="" fill="#7D7D7A" transform="translate(0,0)"/>
<path d="" fill="#D3BAA6" transform="translate(0,0)"/>
<path d="" fill="#C7A997" transform="translate(0,0)"/>
<path d="" fill="#D6BDA7" transform="translate(0,0)"/>
<path d="" fill="#E7D4C1" transform="translate(0,0)"/>
<path d="" fill="#DCC2AB" transform="translate(0,0)"/>
<path d="" fill="#D9BFAD" transform="translate(0,0)"/>
<path d="" fill="#6A6A65" transform="translate(0,0)"/>
<path d="" fill="#858380" transform="translate(0,0)"/>
<path d="" fill="#D9C2AE" transform="translate(0,0)"/>
<path d="" fill="#DBC3AF" transform="translate(0,0)"/>
<path d="" fill="#DDC6B0" transform="translate(0,0)"/>
<path d="" fill="#C7AC9B" transform="translate(0,0)"/>
<path d="" fill="#E0C5B2" transform="translate(0,0)"/>
<path d="" fill="#E0C6B2" transform="translate(0,0)"/>
<path d="" fill="#E0C8B4" transform="translate(0,0)"/>
<path d="" fill="#E1C8B6" transform="translate(0,0)"/>
<path d="" fill="#62625F" transform="translate(0,0)"/>
<path d="" fill="#CDB49F" transform="translate(0,0)"/>
<path d="" fill="#696B69" transform="translate(0,0)"/>
<path d="" fill="#E0CFBF" transform="translate(0,0)"/>
<path d="" fill="#E4D1C1" transform="translate(0,0)"/>
<path d="" fill="#CEB4A3" transform="translate(0,0)"/>
<path d="" fill="#E4D2C0" transform="translate(0,0)"/>
<path d="" fill="#D1BAA6" transform="translate(0,0)"/>
<path d="" fill="#D5BDAA" transform="translate(0,0)"/>
<path d="" fill="#D6C3B5" transform="translate(0,0)"/>
<path d="" fill="#C7BBAF" transform="translate(0,0)"/>
<path d="" fill="#DCC7B3" transform="translate(0,0)"/>
<path d="" fill="#74706B" transform="translate(0,0)"/>
<path d="" fill="#656361" transform="translate(0,0)"/>
<path d="" fill="#686967" transform="translate(0,0)"/>
<path d="" fill="#616463" transform="translate(0,0)"/>
<path d="" fill="#5D5E5D" transform="translate(0,0)"/>
<path d="" fill="#747574" transform="translate(0,0)"/>
<path d="" fill="#5E6161" transform="translate(0,0)"/>
<path d="" fill="#666462" transform="translate(0,0)"/>
<path d="" fill="#696662" transform="translate(0,0)"/>
<path d="" fill="#73716B" transform="translate(0,0)"/>
<path d="" fill="#595957" transform="translate(0,0)"/>
<path d="" fill="#8A837C" transform="translate(0,0)"/>
<path d="" fill="#636463" transform="translate(0,0)"/>
<path d="" fill="#6D6A67" transform="translate(0,0)"/>
<path d="" fill="#A99F95" transform="translate(0,0)"/>
<path d="" fill="#9E968A" transform="translate(0,0)"/>
<path d="" fill="#A99F95" transform="translate(0,0)"/>
<path d="" fill="#747572" transform="translate(0,0)"/>
<path d="" fill="#5A5C5B" transform="translate(0,0)"/>
<path d="" fill="#626160" transform="translate(0,0)"/>
<path d="" fill="#6B6C6B" transform="translate(0,0)"/>
<path d="" fill="#72706A" transform="translate(0,0)"/>
<path d="" fill="#636460" transform="translate(0,0)"/>
<path d="" fill="#6C6E6D" transform="translate(0,0)"/>
<path d="" fill="#5F5E5F" transform="translate(0,0)"/>
<path d="" fill="#565855" transform="translate(0,0)"/>
<path d="" fill="#7F7D7A" transform="translate(0,0)"/>
<path d="" fill="#70716F" transform="translate(0,0)"/>
<path d="" fill="#6E6D6D" transform="translate(0,0)"/>
<path d="" fill="#575959" transform="translate(0,0)"/>
<path d="" fill="#555756" transform="translate(0,0)"/>
<path d="" fill="#646461" transform="translate(0,0)"/>
<path d="" fill="#8A857D" transform="translate(0,0)"/>
<path d="" fill="#737371" transform="translate(0,0)"/>
<path d="" fill="#555756" transform="translate(0,0)"/>
<path d="" fill="#565858" transform="translate(0,0)"/>
<path d="" fill="#84817E" transform="translate(0,0)"/>
<path d="" fill="#676766" transform="translate(0,0)"/>
<path d="" fill="#525352" transform="translate(0,0)"/>
<path d="" fill="#5A5A58" transform="translate(0,0)"/>
<path d="" fill="#5D5C5A" transform="translate(0,0)"/>
<path d="" fill="#62605E" transform="translate(0,0)"/>
<path d="" fill="#686663" transform="translate(0,0)"/>
<path d="" fill="#787672" transform="translate(0,0)"/>
<path d="" fill="#827C77" transform="translate(0,0)"/>
<path d="" fill="#787675" transform="translate(0,0)"/>
<path d="" fill="#696A69" transform="translate(0,0)"/>
<path d="" fill="#646463" transform="translate(0,0)"/>
<path d="" fill="#575957" transform="translate(0,0)"/>
<path d="" fill="#535351" transform="translate(0,0)"/>
<path d="" fill="#646260" transform="translate(0,0)"/>
<path d="" fill="#686963" transform="translate(0,0)"/>
<path d="" fill="#7A7670" transform="translate(0,0)"/>
<path d="" fill="#7E7A75" transform="translate(0,0)"/>
<path d="" fill="#817E79" transform="translate(0,0)"/>
<path d="" fill="#58595A" transform="translate(0,0)"/>
<path d="" fill="#676967" transform="translate(0,0)"/>
<path d="" fill="#626263" transform="translate(0,0)"/>
<path d="" fill="#585857" transform="translate(0,0)"/>
<path d="" fill="#5E5D59" transform="translate(0,0)"/>
<path d="" fill="#5B5E5B" transform="translate(0,0)"/>
<path d="" fill="#706D6B" transform="translate(0,0)"/>
<path d="" fill="#6E6D6B" transform="translate(0,0)"/>
<path d="" fill="#5B5C5E" transform="translate(0,0)"/>
<path d="" fill="#5A5957" transform="translate(0,0)"/>
<path d="" fill="#7E7B76" transform="translate(0,0)"/>
<path d="" fill="#5A5C5A" transform="translate(0,0)"/>
<path d="" fill="#6E6B69" transform="translate(0,0)"/>
<path d="" fill="#7A7876" transform="translate(0,0)"/>
<path d="" fill="#555756" transform="translate(0,0)"/>
<path d="" fill="#525453" transform="translate(0,0)"/>
<path d="" fill="#727270" transform="translate(0,0)"/>
<path d="" fill="#6B6B6B" transform="translate(0,0)"/>
<path d="" fill="#615F5D" transform="translate(0,0)"/>
<path d="" fill="#656460" transform="translate(0,0)"/>
<path d="" fill="#6C6B67" transform="translate(0,0)"/>
<path d="" fill="#75726E" transform="translate(0,0)"/>
<path d="" fill="#77756F" transform="translate(0,0)"/>
<path d="" fill="#727170" transform="translate(0,0)"/>
<path d="" fill="#646463" transform="translate(0,0)"/>
<path d="" fill="#606361" transform="translate(0,0)"/>
<path d="" fill="#5E6060" transform="translate(0,0)"/>
<path d="" fill="#5C5F5D" transform="translate(0,0)"/>
<path d="" fill="#545556" transform="translate(0,0)"/>
<path d="" fill="#565754" transform="translate(0,0)"/>
<path d="" fill="#72716D" transform="translate(0,0)"/>
<path d="" fill="#737370" transform="translate(0,0)"/>
<path d="" fill="#646664" transform="translate(0,0)"/>
</svg>
